<svg xmlns="http://www.w3.org/2000/svg" xmlns:xlink="http://www.w3.org/1999/xlink" width="314" zoomAndPan="magnify" viewBox="0 0 235.5 201.000001" height="268" preserveAspectRatio="xMidYMid meet" version="1.0"><defs><clipPath id="d2285370f3"><path d="M 84 164 L 109 164 L 109 199.898438 L 84 199.898438 Z M 84 164 " clip-rule="nonzero"/></clipPath><clipPath id="21f78397d2"><path d="M 209.054688 42.566406 L 234.667969 42.566406 L 234.667969 77.53125 L 209.054688 77.53125 Z M 209.054688 42.566406 " clip-rule="nonzero"/></clipPath><clipPath id="4d8da7aa19"><path d="M 84 164 L 109 164 L 109 199.898438 L 84 199.898438 Z M 84 164 " clip-rule="nonzero"/></clipPath><clipPath id="b0934bc29d"><path d="M 209.054688 42.566406 L 234.667969 42.566406 L 234.667969 77.53125 L 209.054688 77.53125 Z M 209.054688 42.566406 " clip-rule="nonzero"/></clipPath></defs><path fill="#2e3030" d="M 152.097656 193.96875 C 151.898438 193.570312 151.5 193.320312 151.054688 193.320312 C 150.875 193.320312 150.703125 193.359375 150.542969 193.441406 C 147.648438 194.851562 145.203125 195.570312 143.265625 195.570312 C 142.101562 195.570312 141.109375 195.308594 140.3125 194.796875 C 135.875 191.941406 136.199219 181.339844 136.546875 170.113281 C 136.632812 167.347656 136.71875 164.492188 136.738281 161.671875 C 136.742188 161.359375 136.625 161.070312 136.40625 160.847656 C 136.1875 160.628906 135.894531 160.507812 135.574219 160.503906 C 134.941406 160.503906 134.421875 161.019531 134.417969 161.65625 C 134.398438 164.488281 134.304688 167.4375 134.222656 170.039062 C 133.839844 182.457031 133.507812 193.175781 139.050781 196.742188 C 140.242188 197.511719 141.65625 197.898438 143.253906 197.898438 C 143.515625 197.898438 143.785156 197.886719 144.054688 197.867188 C 146.203125 197.710938 148.660156 196.941406 151.566406 195.519531 C 152.140625 195.238281 152.378906 194.542969 152.097656 193.96875 " fill-opacity="1" fill-rule="nonzero"/><g clip-path="url(#d2285370f3)"><path fill="#2e3030" d="M 107.835938 164.429688 C 107.765625 164.414062 107.691406 164.410156 107.621094 164.410156 C 107.0625 164.410156 106.585938 164.804688 106.480469 165.355469 C 104.210938 177.414062 100.777344 195.640625 94.359375 197.433594 C 94.023438 197.527344 93.667969 197.574219 93.308594 197.574219 C 91.242188 197.574219 88.796875 196.027344 86.046875 192.972656 C 85.828125 192.730469 85.515625 192.589844 85.183594 192.589844 C 84.898438 192.589844 84.621094 192.695312 84.410156 192.886719 C 83.933594 193.3125 83.894531 194.046875 84.320312 194.523438 C 86.796875 197.273438 89.054688 198.929688 91.21875 199.585938 C 91.910156 199.792969 92.597656 199.898438 93.265625 199.898438 C 93.84375 199.898438 94.421875 199.820312 94.988281 199.664062 C 102.203125 197.648438 105.496094 183.125 108.765625 165.78125 C 108.882812 165.152344 108.464844 164.546875 107.835938 164.429688 " fill-opacity="1" fill-rule="nonzero"/></g><path fill="#ff5000" d="M 179.421875 125.179688 C 178.058594 125.121094 176.742188 125.808594 176.003906 126.957031 C 175.628906 127.542969 175.425781 128.1875 175.398438 128.882812 C 175.371094 129.582031 175.519531 130.238281 175.847656 130.855469 C 176.320312 131.355469 176.792969 131.859375 177.265625 132.363281 C 177.988281 132.953125 179.113281 133.128906 180.007812 132.960938 C 181.289062 132.726562 182.148438 131.875 182.691406 130.75 C 182.636719 130.875 182.585938 130.996094 182.53125 131.121094 C 184.210938 128.679688 182.28125 125.292969 179.421875 125.179688 " fill-opacity="1" fill-rule="nonzero"/><path fill="#ff5000" d="M 182.53125 98.671875 C 180.804688 98.765625 179.539062 100.507812 179.714844 102.15625 C 179.90625 103.9375 181.484375 105.058594 183.207031 104.964844 C 184.933594 104.871094 186.203125 103.125 186.027344 101.480469 C 185.835938 99.699219 184.257812 98.574219 182.53125 98.671875 " fill-opacity="1" fill-rule="nonzero"/><path fill="#ffc6c6" d="M 227.628906 97.53125 C 227.070312 86.1875 218.871094 77.320312 208.527344 74.644531 C 211.878906 67.835938 212.320312 59.734375 209.851562 52.535156 C 206.175781 41.824219 195.035156 35.300781 183.824219 35.804688 C 182.488281 35.863281 181.171875 36.070312 179.855469 36.304688 L 175.742188 37.054688 C 173.449219 31.449219 170.027344 26.535156 165.625 22.285156 C 163.238281 19.976562 160.308594 17.953125 157.246094 16.652344 C 150.773438 13.902344 148.289062 13.617188 141.273438 13.234375 C 134.90625 12.886719 127.273438 15.945312 122.035156 19.328125 C 119.695312 20.84375 117.574219 22.589844 115.640625 24.511719 C 109.910156 20.875 103.621094 17.960938 97.207031 16.523438 C 93.886719 15.78125 90.277344 15.28125 86.894531 15.773438 C 79.308594 16.878906 79.828125 16.933594 73.019531 20.175781 C 70.640625 21.308594 68.753906 23.378906 66.863281 25.164062 C 63.277344 28.546875 60.28125 34.882812 59.449219 39.660156 C 59.402344 39.925781 59.359375 40.191406 59.316406 40.453125 C 59.203125 40.457031 59.085938 40.460938 58.96875 40.464844 C 55.390625 40.207031 53.269531 41.070312 49.808594 41.871094 C 44.46875 43.109375 40.117188 46.691406 36.226562 50.308594 C 29.953125 56.140625 27.179688 66.59375 28.089844 74.902344 C 28.226562 77.476562 28.730469 79.929688 29.59375 82.261719 C 19.683594 85.960938 12.535156 95.921875 13.074219 106.933594 C 13.636719 118.394531 22.003906 127.324219 32.5 129.898438 C 32.425781 130.875 32.402344 131.863281 32.453125 132.863281 C 33.136719 146.828125 45.042969 157.046875 58.632812 156.582031 C 63.546875 156.410156 67.058594 154.757812 70.894531 152.03125 C 71.382812 153.046875 71.929688 154.03125 72.554688 154.972656 C 73.957031 156.59375 75.359375 158.210938 76.761719 159.828125 C 80.089844 162.773438 83.917969 164.730469 88.25 165.695312 C 91.449219 166.636719 94.976562 166.855469 98.296875 166.558594 C 104.613281 165.988281 108.609375 164.523438 114.132812 161.453125 C 117.457031 159.609375 120.238281 156.535156 122.230469 153.070312 C 122.972656 153.960938 123.769531 154.816406 124.628906 155.632812 C 126.859375 157.746094 129.484375 159.449219 132.148438 160.960938 C 136.941406 163.679688 141.8125 164.097656 147.160156 164.261719 C 152.21875 164.417969 157.472656 161.984375 161.738281 159.609375 C 164.460938 158.085938 167 155.734375 168.929688 153.21875 C 170.167969 151.472656 171.40625 149.722656 172.644531 147.976562 C 172.882812 147.515625 173.109375 147.050781 173.320312 146.582031 C 177.980469 150.105469 183.855469 152.085938 190.011719 151.875 C 203.605469 151.40625 215.488281 138.964844 214.820312 125.296875 C 214.742188 123.757812 214.519531 122.261719 214.171875 120.820312 C 222.453125 116.375 228.109375 107.371094 227.628906 97.53125 " fill-opacity="1" fill-rule="nonzero"/><path fill="#ffa0a2" d="M 62.226562 38.277344 C 65.617188 28.632812 74.375 21.664062 83.949219 18.691406 C 95.277344 15.171875 107.371094 18.011719 116.34375 25.621094 C 118.496094 27.445312 121.5 24.25 119.339844 22.414062 C 109.199219 13.816406 95.902344 10.722656 83.066406 14.382812 C 71.730469 17.613281 61.882812 26.082031 57.953125 37.257812 C 57.015625 39.929688 61.296875 40.914062 62.226562 38.277344 " fill-opacity="1" fill-rule="nonzero"/><path fill="#ffa0a2" d="M 120.066406 24.246094 C 127.097656 14.71875 139.792969 12.875 150.699219 15.59375 C 162.632812 18.566406 172.847656 27.421875 175.148438 39.777344 C 175.664062 42.546875 179.851562 41.214844 179.339844 38.46875 C 174.707031 13.578125 138.960938 0.378906 119.855469 17.871094 C 118.742188 18.894531 117.75 20.042969 116.855469 21.257812 C 115.195312 23.507812 118.386719 26.523438 120.066406 24.246094 " fill-opacity="1" fill-rule="nonzero"/><path fill="#ffa0a2" d="M 64.308594 37.0625 C 52.402344 35.492188 40.347656 40.269531 32.476562 49.28125 C 28.707031 53.597656 26.070312 58.941406 25.1875 64.609375 C 24.210938 70.851562 25.570312 77.023438 28.417969 82.601562 C 29.703125 85.117188 33.410156 82.761719 32.132812 80.257812 C 27.253906 70.707031 29 59.925781 35.984375 51.929688 C 42.628906 44.328125 53.207031 39.996094 63.289062 41.324219 C 66.074219 41.691406 67.113281 37.433594 64.308594 37.0625 " fill-opacity="1" fill-rule="nonzero"/><path fill="#ffa0a2" d="M 29.621094 79.339844 C 18.394531 84.390625 8.847656 94.3125 9.589844 107.351562 C 10.308594 119.996094 20.746094 128.875 32.183594 132.390625 C 34.898438 133.226562 35.894531 128.957031 33.207031 128.128906 C 23.558594 125.160156 14.753906 117.820312 13.980469 107.203125 C 13.1875 96.296875 21.597656 87.722656 30.933594 83.519531 C 33.476562 82.375 32.203125 78.175781 29.621094 79.339844 " fill-opacity="1" fill-rule="nonzero"/><path fill="#ffa0a2" d="M 177.179688 36.894531 C 186.859375 35.234375 196.992188 38.394531 203.039062 46.335938 C 208.648438 53.695312 209.546875 63.609375 205.542969 71.914062 C 204.316406 74.453125 208.179688 76.539062 209.410156 73.992188 C 214.164062 64.136719 213.183594 52.433594 206.515625 43.679688 C 199.265625 34.164062 187.390625 30.738281 175.863281 32.710938 C 174.683594 32.914062 174.105469 34.433594 174.425781 35.457031 C 174.816406 36.707031 176 37.09375 177.179688 36.894531 " fill-opacity="1" fill-rule="nonzero"/><path fill="#ffa0a2" d="M 207.675781 75.324219 C 217.597656 78.0625 226.015625 85.496094 227.191406 96.097656 C 228.226562 105.410156 223.132812 114.429688 214.601562 118.363281 C 213.515625 118.863281 212.769531 119.855469 213.164062 121.109375 C 213.484375 122.136719 214.828125 123.046875 215.914062 122.542969 C 226.265625 117.773438 232.695312 107.402344 231.582031 95.949219 C 230.355469 83.347656 220.492188 74.320312 208.695312 71.058594 C 205.960938 70.304688 204.957031 74.570312 207.675781 75.324219 " fill-opacity="1" fill-rule="nonzero"/><path fill="#ffa0a2" d="M 32.277344 123.320312 C 30.207031 129.109375 29.707031 135.386719 31.5625 141.300781 C 33.207031 146.53125 36.796875 150.851562 41.335938 153.851562 C 52.304688 161.097656 66.699219 157.972656 76.945312 151.070312 C 79.285156 149.492188 76.953125 145.777344 74.597656 147.367188 C 65.527344 153.476562 53.59375 156.222656 43.753906 150.207031 C 39.960938 147.886719 37.160156 144.179688 35.757812 139.988281 C 34.035156 134.855469 34.757812 129.347656 36.550781 124.339844 C 37.503906 121.675781 33.214844 120.695312 32.277344 123.320312 " fill-opacity="1" fill-rule="nonzero"/><path fill="#ffa0a2" d="M 69.234375 154.605469 C 74.335938 163.214844 83.699219 168.433594 93.566406 169.308594 C 105.53125 170.371094 116.78125 164.925781 124.828125 156.308594 C 126.761719 154.242188 123.550781 151.25 121.617188 153.320312 C 114.484375 160.957031 104.871094 165.652344 94.28125 165 C 85.644531 164.46875 77.367188 159.71875 72.949219 152.265625 C 71.507812 149.832031 67.792969 152.171875 69.234375 154.605469 " fill-opacity="1" fill-rule="nonzero"/><path fill="#ffa0a2" d="M 122.0625 156.523438 C 130.945312 164.898438 143.011719 169.21875 155.082031 166.082031 C 167.53125 162.839844 176.101562 152.191406 180.421875 140.605469 C 180.839844 139.480469 179.855469 138.214844 178.796875 137.964844 C 177.523438 137.664062 176.566406 138.46875 176.148438 139.585938 C 172.3125 149.882812 164.65625 158.90625 153.769531 161.898438 C 143.308594 164.773438 132.683594 160.507812 125.0625 153.320312 C 123 151.375 120.003906 154.578125 122.0625 156.523438 " fill-opacity="1" fill-rule="nonzero"/><path fill="#ffa0a2" d="M 172.792969 150.640625 C 185.210938 155.480469 199.386719 154.320312 209.101562 144.5625 C 217.789062 135.832031 219.246094 122.507812 213.199219 111.929688 C 211.796875 109.476562 208.082031 111.820312 209.484375 114.269531 C 214.558594 123.148438 213.128906 133.851562 206.167969 141.28125 C 198.132812 149.859375 185.410156 150.890625 174.875 146.78125 C 172.265625 145.765625 170.160156 149.613281 172.792969 150.640625 " fill-opacity="1" fill-rule="nonzero"/><path fill="#ffa0a2" d="M 114.992188 24.445312 C 117.027344 27.308594 118.371094 30.183594 118.96875 33.660156 C 119.167969 34.839844 120.695312 35.417969 121.71875 35.097656 C 122.976562 34.707031 123.363281 33.527344 123.160156 32.351562 C 122.507812 28.546875 120.933594 25.234375 118.707031 22.105469 C 117.074219 19.808594 113.347656 22.128906 114.992188 24.445312 " fill-opacity="1" fill-rule="nonzero"/><path fill="#ffa0a2" d="M 73.21875 72.675781 C 74.738281 65.433594 79.707031 59.65625 87.097656 58.109375 C 93.847656 56.699219 100.472656 60.152344 103.839844 65.972656 C 104.972656 67.925781 107.941406 66.054688 106.808594 64.097656 C 102.601562 56.820312 94.621094 53.300781 86.390625 54.699219 C 77.710938 56.171875 71.546875 63.554688 69.800781 71.863281 C 69.335938 74.074219 72.757812 74.886719 73.21875 72.675781 " fill-opacity="1" fill-rule="nonzero"/><path fill="#ffa0a2" d="M 138.574219 63.253906 C 142.089844 56.902344 148.695312 52.453125 156.167969 53.796875 C 162.867188 54.996094 166.945312 60.675781 166.375 67.339844 C 166.183594 69.589844 169.695312 69.441406 169.882812 67.21875 C 170.578125 59.085938 165.226562 52.210938 157.3125 50.449219 C 148.242188 48.433594 139.765625 53.84375 135.480469 61.59375 C 134.382812 63.574219 137.480469 65.230469 138.574219 63.253906 " fill-opacity="1" fill-rule="nonzero"/><path fill="#ffa0a2" d="M 57.453125 124.097656 C 61.457031 117.539062 63.515625 109.363281 59.710938 102.25 C 55.953125 95.21875 47.367188 93.050781 39.960938 93.472656 C 37.703125 93.597656 37.820312 97.101562 40.085938 96.972656 C 46.324219 96.617188 53.117188 98.121094 56.5625 103.808594 C 60.117188 109.675781 57.632812 117.070312 54.359375 122.433594 C 53.179688 124.371094 56.28125 126.019531 57.453125 124.097656 " fill-opacity="1" fill-rule="nonzero"/><path fill="#ffa0a2" d="M 42.464844 96.859375 C 48.207031 95.34375 54.574219 87.675781 52.277344 81.535156 C 51.492188 79.429688 48.132812 80.460938 48.925781 82.585938 C 50.554688 86.941406 45.351562 92.472656 41.417969 93.511719 C 39.226562 94.089844 40.277344 97.433594 42.464844 96.859375 " fill-opacity="1" fill-rule="nonzero"/><path fill="#ffa0a2" d="M 139.460938 147.152344 C 140.355469 142.484375 144.917969 140.46875 149.117188 139.449219 C 151.316406 138.910156 150.257812 135.566406 148.066406 136.101562 C 142.675781 137.414062 137.167969 140.460938 136.042969 146.339844 C 135.621094 148.554688 139.039062 149.375 139.460938 147.152344 " fill-opacity="1" fill-rule="nonzero"/><path fill="#ffa0a2" d="M 106.007812 147.941406 C 111.890625 136.796875 130.777344 135.382812 136.058594 147.875 C 136.929688 149.933594 140.292969 148.914062 139.414062 146.824219 C 132.996094 131.648438 110.324219 132.234375 102.914062 146.277344 C 101.859375 148.28125 104.953125 149.941406 106.007812 147.941406 " fill-opacity="1" fill-rule="nonzero"/><path fill="#ffa0a2" d="M 198.878906 92.566406 C 193.449219 96.996094 192.894531 103.34375 195.769531 109.457031 C 196.730469 111.496094 199.691406 109.605469 198.742188 107.585938 C 196.757812 103.375 196.957031 98.628906 200.753906 95.527344 C 202.480469 94.117188 200.628906 91.132812 198.878906 92.566406 " fill-opacity="1" fill-rule="nonzero"/><path fill="#ffa0a2" d="M 189.191406 72.691406 C 182.816406 76.449219 178.539062 83.691406 182.054688 90.875 C 183.488281 93.808594 186.367188 95.785156 189.433594 96.683594 C 193.628906 97.914062 198.089844 96.722656 201.917969 94.941406 C 203.964844 93.988281 202.066406 91.035156 200.042969 91.976562 C 195.039062 94.304688 188.242188 94.6875 185.164062 89.265625 C 182.117188 83.90625 186.59375 78.292969 191.070312 75.65625 C 193.019531 74.503906 191.144531 71.539062 189.191406 72.691406 " fill-opacity="1" fill-rule="nonzero"/><path fill="#ffe3e4" d="M 70.789062 34.132812 C 75.210938 27.066406 83.367188 22.859375 91.679688 23.113281 C 93.605469 23.175781 93.492188 20.195312 91.578125 20.136719 C 82.1875 19.847656 73.121094 24.796875 68.160156 32.722656 C 67.136719 34.355469 69.773438 35.753906 70.789062 34.132812 " fill-opacity="1" fill-rule="nonzero"/><path fill="#ffe3e4" d="M 78.820312 71.117188 C 80.269531 68.75 81.859375 66.40625 84.171875 64.808594 C 86.765625 63.015625 90 62.730469 93.0625 62.761719 C 94.992188 62.78125 94.882812 59.804688 92.960938 59.785156 C 89.4375 59.75 85.949219 60.238281 82.890625 62.085938 C 79.953125 63.855469 77.941406 66.84375 76.191406 69.703125 C 75.183594 71.347656 77.820312 72.746094 78.820312 71.117188 " fill-opacity="1" fill-rule="nonzero"/><path fill="#ffe3e4" d="M 35.71875 62.347656 C 39.554688 53.773438 47.691406 48.476562 56.652344 46.386719 C 58.527344 45.949219 57.628906 43.109375 55.761719 43.542969 C 46.117188 45.789062 37.210938 51.722656 33.089844 60.929688 C 32.308594 62.679688 34.933594 64.097656 35.71875 62.347656 " fill-opacity="1" fill-rule="nonzero"/><path fill="#ffe3e4" d="M 126.984375 23.957031 C 130.648438 21.152344 134.90625 18.777344 139.6875 19.359375 C 141.582031 19.585938 142.289062 16.691406 140.382812 16.457031 C 134.738281 15.777344 129.78125 18.074219 125.390625 21.4375 C 123.875 22.597656 125.453125 25.132812 126.984375 23.957031 " fill-opacity="1" fill-rule="nonzero"/><path fill="#ffe3e4" d="M 144.261719 63.621094 C 147.238281 59.769531 151.132812 57.679688 156.089844 58.734375 C 157.972656 59.136719 158.664062 56.234375 156.785156 55.835938 C 150.84375 54.570312 145.710938 56.886719 142.078125 61.589844 C 140.914062 63.101562 143.085938 65.144531 144.261719 63.621094 " fill-opacity="1" fill-rule="nonzero"/><path fill="#ffe3e4" d="M 43.699219 101.589844 C 46.5 101.910156 49.261719 102.578125 51.269531 104.679688 C 52.972656 106.460938 53.359375 109.207031 53.5 111.554688 C 53.613281 113.46875 56.597656 113.371094 56.484375 111.453125 C 56.308594 108.472656 55.703125 105.4375 53.78125 103.058594 C 51.488281 100.210938 47.910156 99.09375 44.394531 98.691406 C 42.5 98.476562 41.792969 101.371094 43.699219 101.589844 " fill-opacity="1" fill-rule="nonzero"/><path fill="#1c1b1b" d="M 138.082031 118.644531 C 137.035156 121.464844 135.882812 123.640625 134.699219 125.300781 C 134.007812 126.269531 133.3125 127.0625 132.621094 127.707031 C 130.738281 129.480469 128.886719 130.1875 127.339844 130.414062 C 124.609375 130.8125 121.980469 129.84375 119.785156 128.140625 C 117.664062 126.53125 115.941406 124.25 114.902344 121.894531 C 114.820312 121.734375 114.828125 121.550781 114.917969 121.386719 C 115.003906 121.234375 115.160156 121.121094 115.339844 121.09375 L 137.460938 117.878906 C 137.664062 117.847656 137.863281 117.9375 137.988281 118.089844 C 138.117188 118.246094 138.160156 118.457031 138.082031 118.644531 " fill-opacity="1" fill-rule="nonzero"/><path fill="#f5f7f7" d="M 132.5625 118.589844 L 132.628906 119.054688 C 132.761719 119.96875 131.398438 120.929688 129.585938 121.191406 C 128.203125 121.394531 126.960938 121.125 126.390625 120.574219 C 126.003906 121.265625 124.882812 121.878906 123.496094 122.078125 C 121.683594 122.34375 120.113281 121.808594 119.976562 120.894531 L 119.910156 120.429688 L 132.5625 118.589844 " fill-opacity="1" fill-rule="nonzero"/><path fill="#f2f4f4" d="M 111.339844 103.558594 C 111.945312 109.832031 107.339844 115.402344 101.054688 116.003906 C 94.769531 116.609375 89.1875 112.015625 88.578125 105.746094 C 87.972656 99.476562 92.578125 93.90625 98.863281 93.300781 C 105.148438 92.699219 110.734375 97.292969 111.339844 103.558594 " fill-opacity="1" fill-rule="nonzero"/><path fill="#181919" d="M 109.054688 103.539062 C 109.5 108.1875 106.089844 112.320312 101.425781 112.769531 C 96.769531 113.214844 92.625 109.808594 92.175781 105.160156 C 91.726562 100.511719 95.140625 96.378906 99.800781 95.929688 C 104.460938 95.484375 108.605469 98.886719 109.054688 103.539062 " fill-opacity="1" fill-rule="nonzero"/><path fill="#f2f4f4" d="M 96.660156 102.0625 C 96.800781 103.507812 95.742188 104.789062 94.289062 104.929688 C 92.84375 105.070312 91.558594 104.007812 91.417969 102.566406 C 91.277344 101.121094 92.335938 99.835938 93.785156 99.695312 C 95.234375 99.554688 96.519531 100.613281 96.660156 102.0625 " fill-opacity="1" fill-rule="nonzero"/><path fill="#f2f4f4" d="M 160.5 98.800781 C 161.101562 105.058594 156.511719 110.617188 150.242188 111.21875 C 143.972656 111.820312 138.402344 107.238281 137.796875 100.984375 C 137.191406 94.730469 141.785156 89.171875 148.050781 88.574219 C 154.324219 87.96875 159.894531 92.546875 160.5 98.800781 " fill-opacity="1" fill-rule="nonzero"/><path fill="#181919" d="M 158.210938 98.703125 C 158.660156 103.355469 155.242188 107.484375 150.578125 107.9375 C 145.921875 108.382812 141.78125 104.976562 141.328125 100.324219 C 140.882812 95.675781 144.296875 91.542969 148.953125 91.097656 C 153.617188 90.648438 157.761719 94.054688 158.210938 98.703125 " fill-opacity="1" fill-rule="nonzero"/><path fill="#f2f4f4" d="M 146.046875 97.257812 C 146.1875 98.703125 145.121094 99.988281 143.675781 100.125 C 142.230469 100.265625 140.941406 99.207031 140.804688 97.761719 C 140.664062 96.316406 141.726562 95.03125 143.171875 94.894531 C 144.621094 94.753906 145.90625 95.8125 146.046875 97.257812 " fill-opacity="1" fill-rule="nonzero"/><path fill="#ffc6c6" d="M 163.269531 112.4375 L 87.617188 119.039062 L 86.78125 109.53125 L 123.988281 107.859375 L 162.4375 102.929688 L 163.269531 112.4375 " fill-opacity="1" fill-rule="nonzero"/><path fill="#fc7a8c" d="M 182.84375 102.804688 C 184.519531 105.992188 181.898438 110.214844 176.988281 112.242188 C 172.074219 114.261719 166.734375 113.316406 165.054688 110.128906 C 163.375 106.941406 165.992188 102.714844 170.910156 100.691406 C 175.820312 98.667969 181.164062 99.617188 182.84375 102.804688 " fill-opacity="1" fill-rule="nonzero"/><path fill="#fc7a8c" d="M 87.136719 117.632812 C 87.144531 121.378906 82.140625 124.445312 75.957031 124.484375 C 69.777344 124.519531 64.757812 121.511719 64.746094 117.765625 C 64.738281 114.023438 69.746094 110.953125 75.925781 110.917969 C 82.109375 110.878906 87.128906 113.886719 87.136719 117.632812 " fill-opacity="1" fill-rule="nonzero"/><path fill="#2e3030" d="M 36.546875 127.875 C 36.347656 127.609375 36.03125 127.449219 35.699219 127.449219 C 35.46875 127.449219 35.253906 127.523438 35.070312 127.660156 L 34.121094 128.359375 C 23.851562 135.984375 22.691406 136.839844 9.582031 141.828125 L 4.570312 138.441406 C 4.394531 138.324219 4.191406 138.261719 3.980469 138.261719 C 3.628906 138.261719 3.300781 138.4375 3.101562 138.726562 C 2.777344 139.207031 2.902344 139.863281 3.386719 140.1875 L 6.8125 142.5 L 1.839844 143.753906 C 1.273438 143.894531 0.929688 144.46875 1.074219 145.03125 C 1.191406 145.503906 1.613281 145.828125 2.097656 145.828125 C 2.183594 145.828125 2.273438 145.816406 2.355469 145.796875 L 7.203125 144.574219 L 4.90625 148.660156 C 4.769531 148.90625 4.734375 149.191406 4.808594 149.460938 C 4.886719 149.730469 5.0625 149.957031 5.308594 150.09375 C 5.464844 150.183594 5.644531 150.230469 5.824219 150.230469 C 6.207031 150.230469 6.5625 150.023438 6.746094 149.691406 L 9.992188 143.925781 C 9.996094 143.921875 10.003906 143.921875 10.007812 143.917969 C 23.707031 138.714844 24.8125 137.894531 35.382812 130.046875 L 36.328125 129.347656 C 36.554688 129.179688 36.703125 128.933594 36.742188 128.65625 C 36.785156 128.378906 36.714844 128.097656 36.546875 127.875 " fill-opacity="1" fill-rule="nonzero"/><g clip-path="url(#21f78397d2)"><path fill="#2e3030" d="M 234.96875 47.546875 C 234.800781 47.167969 234.421875 46.925781 234.007812 46.925781 C 233.855469 46.925781 233.710938 46.957031 233.574219 47.019531 L 229.292969 48.945312 L 230.9375 44.230469 C 231.03125 43.964844 231.011719 43.679688 230.890625 43.425781 C 230.769531 43.171875 230.554688 42.984375 230.289062 42.890625 C 230.175781 42.851562 230.058594 42.832031 229.941406 42.832031 C 229.492188 42.832031 229.09375 43.117188 228.945312 43.539062 L 227.253906 48.371094 L 225.246094 44.761719 C 225.0625 44.429688 224.703125 44.222656 224.324219 44.222656 C 224.144531 44.222656 223.96875 44.269531 223.8125 44.355469 C 223.300781 44.636719 223.117188 45.277344 223.398438 45.785156 L 226.339844 51.0625 C 220.320312 63.414062 218.996094 64.898438 210.789062 74.082031 L 209.511719 75.511719 C 209.328125 75.71875 209.230469 75.988281 209.25 76.269531 C 209.265625 76.550781 209.390625 76.808594 209.601562 76.996094 C 209.792969 77.167969 210.042969 77.265625 210.300781 77.265625 C 210.605469 77.265625 210.890625 77.132812 211.089844 76.910156 L 212.363281 75.484375 C 220.625 66.242188 222.109375 64.578125 228.390625 51.667969 C 228.394531 51.664062 228.394531 51.660156 228.394531 51.65625 L 234.441406 48.9375 C 234.699219 48.824219 234.894531 48.613281 234.996094 48.351562 C 235.09375 48.089844 235.085938 47.800781 234.96875 47.546875 " fill-opacity="1" fill-rule="nonzero"/></g><path fill="#2e3030" d="M 152.097656 193.96875 C 151.898438 193.570312 151.5 193.320312 151.054688 193.320312 C 150.875 193.320312 150.703125 193.359375 150.542969 193.441406 C 147.648438 194.851562 145.203125 195.570312 143.265625 195.570312 C 142.101562 195.570312 141.109375 195.308594 140.3125 194.796875 C 135.875 191.941406 136.199219 181.339844 136.546875 170.113281 C 136.632812 167.347656 136.71875 164.492188 136.738281 161.671875 C 136.742188 161.359375 136.625 161.070312 136.40625 160.847656 C 136.1875 160.628906 135.894531 160.507812 135.574219 160.503906 C 134.941406 160.503906 134.421875 161.019531 134.417969 161.65625 C 134.398438 164.488281 134.304688 167.4375 134.222656 170.039062 C 133.839844 182.457031 133.507812 193.175781 139.050781 196.742188 C 140.242188 197.511719 141.65625 197.898438 143.253906 197.898438 C 143.515625 197.898438 143.785156 197.886719 144.054688 197.867188 C 146.203125 197.710938 148.660156 196.941406 151.566406 195.519531 C 152.140625 195.238281 152.378906 194.542969 152.097656 193.96875 " fill-opacity="1" fill-rule="nonzero"/><g clip-path="url(#4d8da7aa19)"><path fill="#2e3030" d="M 107.835938 164.429688 C 107.765625 164.414062 107.691406 164.410156 107.621094 164.410156 C 107.0625 164.410156 106.585938 164.804688 106.480469 165.355469 C 104.210938 177.414062 100.777344 195.640625 94.359375 197.433594 C 94.023438 197.527344 93.667969 197.574219 93.308594 197.574219 C 91.242188 197.574219 88.796875 196.027344 86.046875 192.972656 C 85.828125 192.730469 85.515625 192.589844 85.183594 192.589844 C 84.898438 192.589844 84.621094 192.695312 84.410156 192.886719 C 83.933594 193.3125 83.894531 194.046875 84.320312 194.523438 C 86.796875 197.273438 89.054688 198.929688 91.21875 199.585938 C 91.910156 199.792969 92.597656 199.898438 93.265625 199.898438 C 93.84375 199.898438 94.421875 199.820312 94.988281 199.664062 C 102.203125 197.648438 105.496094 183.125 108.765625 165.78125 C 108.882812 165.152344 108.464844 164.546875 107.835938 164.429688 " fill-opacity="1" fill-rule="nonzero"/></g><path fill="#ff5000" d="M 179.421875 125.179688 C 178.058594 125.121094 176.742188 125.808594 176.003906 126.957031 C 175.628906 127.542969 175.425781 128.1875 175.398438 128.882812 C 175.371094 129.582031 175.519531 130.238281 175.847656 130.855469 C 176.320312 131.355469 176.792969 131.859375 177.265625 132.363281 C 177.988281 132.953125 179.113281 133.128906 180.007812 132.960938 C 181.289062 132.726562 182.148438 131.875 182.691406 130.75 C 182.636719 130.875 182.585938 130.996094 182.53125 131.121094 C 184.210938 128.679688 182.28125 125.292969 179.421875 125.179688 " fill-opacity="1" fill-rule="nonzero"/><path fill="#ff5000" d="M 182.53125 98.671875 C 180.804688 98.765625 179.539062 100.507812 179.714844 102.15625 C 179.90625 103.9375 181.484375 105.058594 183.207031 104.964844 C 184.933594 104.871094 186.203125 103.125 186.027344 101.480469 C 185.835938 99.699219 184.257812 98.574219 182.53125 98.671875 " fill-opacity="1" fill-rule="nonzero"/><path fill="#ffc6c6" d="M 227.628906 97.53125 C 227.070312 86.1875 218.871094 77.320312 208.527344 74.644531 C 211.878906 67.835938 212.320312 59.734375 209.851562 52.535156 C 206.175781 41.824219 195.035156 35.300781 183.824219 35.804688 C 182.488281 35.863281 181.171875 36.070312 179.855469 36.304688 L 175.742188 37.054688 C 173.449219 31.449219 170.027344 26.535156 165.625 22.285156 C 163.238281 19.976562 160.308594 17.953125 157.246094 16.652344 C 150.773438 13.902344 148.289062 13.617188 141.273438 13.234375 C 134.90625 12.886719 127.273438 15.945312 122.035156 19.328125 C 119.695312 20.84375 117.574219 22.589844 115.640625 24.511719 C 109.910156 20.875 103.621094 17.960938 97.207031 16.523438 C 93.886719 15.78125 90.277344 15.28125 86.894531 15.773438 C 79.308594 16.878906 79.828125 16.933594 73.019531 20.175781 C 70.640625 21.308594 68.753906 23.378906 66.863281 25.164062 C 63.277344 28.546875 60.28125 34.882812 59.449219 39.660156 C 59.402344 39.925781 59.359375 40.191406 59.316406 40.453125 C 59.203125 40.457031 59.085938 40.460938 58.96875 40.464844 C 55.390625 40.207031 53.269531 41.070312 49.808594 41.871094 C 44.46875 43.109375 40.117188 46.691406 36.226562 50.308594 C 29.953125 56.140625 27.179688 66.59375 28.089844 74.902344 C 28.226562 77.476562 28.730469 79.929688 29.59375 82.261719 C 19.683594 85.960938 12.535156 95.921875 13.074219 106.933594 C 13.636719 118.394531 22.003906 127.324219 32.5 129.898438 C 32.425781 130.875 32.402344 131.863281 32.453125 132.863281 C 33.136719 146.828125 45.042969 157.046875 58.632812 156.582031 C 63.546875 156.410156 67.058594 154.757812 70.894531 152.03125 C 71.382812 153.046875 71.929688 154.03125 72.554688 154.972656 C 73.957031 156.59375 75.359375 158.210938 76.761719 159.828125 C 80.089844 162.773438 83.917969 164.730469 88.25 165.695312 C 91.449219 166.636719 94.976562 166.855469 98.296875 166.558594 C 104.613281 165.988281 108.609375 164.523438 114.132812 161.453125 C 117.457031 159.609375 120.238281 156.535156 122.230469 153.070312 C 122.972656 153.960938 123.769531 154.816406 124.628906 155.632812 C 126.859375 157.746094 129.484375 159.449219 132.148438 160.960938 C 136.941406 163.679688 141.8125 164.097656 147.160156 164.261719 C 152.21875 164.417969 157.472656 161.984375 161.738281 159.609375 C 164.460938 158.085938 167 155.734375 168.929688 153.21875 C 170.167969 151.472656 171.40625 149.722656 172.644531 147.976562 C 172.882812 147.515625 173.109375 147.050781 173.320312 146.582031 C 177.980469 150.105469 183.855469 152.085938 190.011719 151.875 C 203.605469 151.40625 215.488281 138.964844 214.820312 125.296875 C 214.742188 123.757812 214.519531 122.261719 214.171875 120.820312 C 222.453125 116.375 228.109375 107.371094 227.628906 97.53125 " fill-opacity="1" fill-rule="nonzero"/><path fill="#ffa0a2" d="M 62.226562 38.277344 C 65.617188 28.632812 74.375 21.664062 83.949219 18.691406 C 95.277344 15.171875 107.371094 18.011719 116.34375 25.621094 C 118.496094 27.445312 121.5 24.25 119.339844 22.414062 C 109.199219 13.816406 95.902344 10.722656 83.066406 14.382812 C 71.730469 17.613281 61.882812 26.082031 57.953125 37.257812 C 57.015625 39.929688 61.296875 40.914062 62.226562 38.277344 " fill-opacity="1" fill-rule="nonzero"/><path fill="#ffa0a2" d="M 120.066406 24.246094 C 127.097656 14.71875 139.792969 12.875 150.699219 15.59375 C 162.632812 18.566406 172.847656 27.421875 175.148438 39.777344 C 175.664062 42.546875 179.851562 41.214844 179.339844 38.46875 C 174.707031 13.578125 138.960938 0.378906 119.855469 17.871094 C 118.742188 18.894531 117.75 20.042969 116.855469 21.257812 C 115.195312 23.507812 118.386719 26.523438 120.066406 24.246094 " fill-opacity="1" fill-rule="nonzero"/><path fill="#ffa0a2" d="M 64.308594 37.0625 C 52.402344 35.492188 40.347656 40.269531 32.476562 49.28125 C 28.707031 53.597656 26.070312 58.941406 25.1875 64.609375 C 24.210938 70.851562 25.570312 77.023438 28.417969 82.601562 C 29.703125 85.117188 33.410156 82.761719 32.132812 80.257812 C 27.253906 70.707031 29 59.925781 35.984375 51.929688 C 42.628906 44.328125 53.207031 39.996094 63.289062 41.324219 C 66.074219 41.691406 67.113281 37.433594 64.308594 37.0625 " fill-opacity="1" fill-rule="nonzero"/><path fill="#ffa0a2" d="M 29.621094 79.339844 C 18.394531 84.390625 8.847656 94.3125 9.589844 107.351562 C 10.308594 119.996094 20.746094 128.875 32.183594 132.390625 C 34.898438 133.226562 35.894531 128.957031 33.207031 128.128906 C 23.558594 125.160156 14.753906 117.820312 13.980469 107.203125 C 13.1875 96.296875 21.597656 87.722656 30.933594 83.519531 C 33.476562 82.375 32.203125 78.175781 29.621094 79.339844 " fill-opacity="1" fill-rule="nonzero"/><path fill="#ffa0a2" d="M 177.179688 36.894531 C 186.859375 35.234375 196.992188 38.394531 203.039062 46.335938 C 208.648438 53.695312 209.546875 63.609375 205.542969 71.914062 C 204.316406 74.453125 208.179688 76.539062 209.410156 73.992188 C 214.164062 64.136719 213.183594 52.433594 206.515625 43.679688 C 199.265625 34.164062 187.390625 30.738281 175.863281 32.710938 C 174.683594 32.914062 174.105469 34.433594 174.425781 35.457031 C 174.816406 36.707031 176 37.09375 177.179688 36.894531 " fill-opacity="1" fill-rule="nonzero"/><path fill="#ffa0a2" d="M 207.675781 75.324219 C 217.597656 78.0625 226.015625 85.496094 227.191406 96.097656 C 228.226562 105.410156 223.132812 114.429688 214.601562 118.363281 C 213.515625 118.863281 212.769531 119.855469 213.164062 121.109375 C 213.484375 122.136719 214.828125 123.046875 215.914062 122.542969 C 226.265625 117.773438 232.695312 107.402344 231.582031 95.949219 C 230.355469 83.347656 220.492188 74.320312 208.695312 71.058594 C 205.960938 70.304688 204.957031 74.570312 207.675781 75.324219 " fill-opacity="1" fill-rule="nonzero"/><path fill="#ffa0a2" d="M 32.277344 123.320312 C 30.207031 129.109375 29.707031 135.386719 31.5625 141.300781 C 33.207031 146.53125 36.796875 150.851562 41.335938 153.851562 C 52.304688 161.097656 66.699219 157.972656 76.945312 151.070312 C 79.285156 149.492188 76.953125 145.777344 74.597656 147.367188 C 65.527344 153.476562 53.59375 156.222656 43.753906 150.207031 C 39.960938 147.886719 37.160156 144.179688 35.757812 139.988281 C 34.035156 134.855469 34.757812 129.347656 36.550781 124.339844 C 37.503906 121.675781 33.214844 120.695312 32.277344 123.320312 " fill-opacity="1" fill-rule="nonzero"/><path fill="#ffa0a2" d="M 69.234375 154.605469 C 74.335938 163.214844 83.699219 168.433594 93.566406 169.308594 C 105.53125 170.371094 116.78125 164.925781 124.828125 156.308594 C 126.761719 154.242188 123.550781 151.25 121.617188 153.320312 C 114.484375 160.957031 104.871094 165.652344 94.28125 165 C 85.644531 164.46875 77.367188 159.71875 72.949219 152.265625 C 71.507812 149.832031 67.792969 152.171875 69.234375 154.605469 " fill-opacity="1" fill-rule="nonzero"/><path fill="#ffa0a2" d="M 122.0625 156.523438 C 130.945312 164.898438 143.011719 169.21875 155.082031 166.082031 C 167.53125 162.839844 176.101562 152.191406 180.421875 140.605469 C 180.839844 139.480469 179.855469 138.214844 178.796875 137.964844 C 177.523438 137.664062 176.566406 138.46875 176.148438 139.585938 C 172.3125 149.882812 164.65625 158.90625 153.769531 161.898438 C 143.308594 164.773438 132.683594 160.507812 125.0625 153.320312 C 123 151.375 120.003906 154.578125 122.0625 156.523438 " fill-opacity="1" fill-rule="nonzero"/><path fill="#ffa0a2" d="M 172.792969 150.640625 C 185.210938 155.480469 199.386719 154.320312 209.101562 144.5625 C 217.789062 135.832031 219.246094 122.507812 213.199219 111.929688 C 211.796875 109.476562 208.082031 111.820312 209.484375 114.269531 C 214.558594 123.148438 213.128906 133.851562 206.167969 141.28125 C 198.132812 149.859375 185.410156 150.890625 174.875 146.78125 C 172.265625 145.765625 170.160156 149.613281 172.792969 150.640625 " fill-opacity="1" fill-rule="nonzero"/><path fill="#ffa0a2" d="M 114.992188 24.445312 C 117.027344 27.308594 118.371094 30.183594 118.96875 33.660156 C 119.167969 34.839844 120.695312 35.417969 121.71875 35.097656 C 122.976562 34.707031 123.363281 33.527344 123.160156 32.351562 C 122.507812 28.546875 120.933594 25.234375 118.707031 22.105469 C 117.074219 19.808594 113.347656 22.128906 114.992188 24.445312 " fill-opacity="1" fill-rule="nonzero"/><path fill="#ffa0a2" d="M 73.21875 72.675781 C 74.738281 65.433594 79.707031 59.65625 87.097656 58.109375 C 93.847656 56.699219 100.472656 60.152344 103.839844 65.972656 C 104.972656 67.925781 107.941406 66.054688 106.808594 64.097656 C 102.601562 56.820312 94.621094 53.300781 86.390625 54.699219 C 77.710938 56.171875 71.546875 63.554688 69.800781 71.863281 C 69.335938 74.074219 72.757812 74.886719 73.21875 72.675781 " fill-opacity="1" fill-rule="nonzero"/><path fill="#ffa0a2" d="M 138.574219 63.253906 C 142.089844 56.902344 148.695312 52.453125 156.167969 53.796875 C 162.867188 54.996094 166.945312 60.675781 166.375 67.339844 C 166.183594 69.589844 169.695312 69.441406 169.882812 67.21875 C 170.578125 59.085938 165.226562 52.210938 157.3125 50.449219 C 148.242188 48.433594 139.765625 53.84375 135.480469 61.59375 C 134.382812 63.574219 137.480469 65.230469 138.574219 63.253906 " fill-opacity="1" fill-rule="nonzero"/><path fill="#ffa0a2" d="M 57.453125 124.097656 C 61.457031 117.539062 63.515625 109.363281 59.710938 102.25 C 55.953125 95.21875 47.367188 93.050781 39.960938 93.472656 C 37.703125 93.597656 37.820312 97.101562 40.085938 96.972656 C 46.324219 96.617188 53.117188 98.121094 56.5625 103.808594 C 60.117188 109.675781 57.632812 117.070312 54.359375 122.433594 C 53.179688 124.371094 56.28125 126.019531 57.453125 124.097656 " fill-opacity="1" fill-rule="nonzero"/><path fill="#ffa0a2" d="M 42.464844 96.859375 C 48.207031 95.34375 54.574219 87.675781 52.277344 81.535156 C 51.492188 79.429688 48.132812 80.460938 48.925781 82.585938 C 50.554688 86.941406 45.351562 92.472656 41.417969 93.511719 C 39.226562 94.089844 40.277344 97.433594 42.464844 96.859375 " fill-opacity="1" fill-rule="nonzero"/><path fill="#ffa0a2" d="M 139.460938 147.152344 C 140.355469 142.484375 144.917969 140.46875 149.117188 139.449219 C 151.316406 138.910156 150.257812 135.566406 148.066406 136.101562 C 142.675781 137.414062 137.167969 140.460938 136.042969 146.339844 C 135.621094 148.554688 139.039062 149.375 139.460938 147.152344 " fill-opacity="1" fill-rule="nonzero"/><path fill="#ffa0a2" d="M 106.007812 147.941406 C 111.890625 136.796875 130.777344 135.382812 136.058594 147.875 C 136.929688 149.933594 140.292969 148.914062 139.414062 146.824219 C 132.996094 131.648438 110.324219 132.234375 102.914062 146.277344 C 101.859375 148.28125 104.953125 149.941406 106.007812 147.941406 " fill-opacity="1" fill-rule="nonzero"/><path fill="#ffa0a2" d="M 198.878906 92.566406 C 193.449219 96.996094 192.894531 103.34375 195.769531 109.457031 C 196.730469 111.496094 199.691406 109.605469 198.742188 107.585938 C 196.757812 103.375 196.957031 98.628906 200.753906 95.527344 C 202.480469 94.117188 200.628906 91.132812 198.878906 92.566406 " fill-opacity="1" fill-rule="nonzero"/><path fill="#ffa0a2" d="M 189.191406 72.691406 C 182.816406 76.449219 178.539062 83.691406 182.054688 90.875 C 183.488281 93.808594 186.367188 95.785156 189.433594 96.683594 C 193.628906 97.914062 198.089844 96.722656 201.917969 94.941406 C 203.964844 93.988281 202.066406 91.035156 200.042969 91.976562 C 195.039062 94.304688 188.242188 94.6875 185.164062 89.265625 C 182.117188 83.90625 186.59375 78.292969 191.070312 75.65625 C 193.019531 74.503906 191.144531 71.539062 189.191406 72.691406 " fill-opacity="1" fill-rule="nonzero"/><path fill="#ffe3e4" d="M 70.789062 34.132812 C 75.210938 27.066406 83.367188 22.859375 91.679688 23.113281 C 93.605469 23.175781 93.492188 20.195312 91.578125 20.136719 C 82.1875 19.847656 73.121094 24.796875 68.160156 32.722656 C 67.136719 34.355469 69.773438 35.753906 70.789062 34.132812 " fill-opacity="1" fill-rule="nonzero"/><path fill="#ffe3e4" d="M 78.820312 71.117188 C 80.269531 68.75 81.859375 66.40625 84.171875 64.808594 C 86.765625 63.015625 90 62.730469 93.0625 62.761719 C 94.992188 62.78125 94.882812 59.804688 92.960938 59.785156 C 89.4375 59.75 85.949219 60.238281 82.890625 62.085938 C 79.953125 63.855469 77.941406 66.84375 76.191406 69.703125 C 75.183594 71.347656 77.820312 72.746094 78.820312 71.117188 " fill-opacity="1" fill-rule="nonzero"/><path fill="#ffe3e4" d="M 35.71875 62.347656 C 39.554688 53.773438 47.691406 48.476562 56.652344 46.386719 C 58.527344 45.949219 57.628906 43.109375 55.761719 43.542969 C 46.117188 45.789062 37.210938 51.722656 33.089844 60.929688 C 32.308594 62.679688 34.933594 64.097656 35.71875 62.347656 " fill-opacity="1" fill-rule="nonzero"/><path fill="#ffe3e4" d="M 126.984375 23.957031 C 130.648438 21.152344 134.90625 18.777344 139.6875 19.359375 C 141.582031 19.585938 142.289062 16.691406 140.382812 16.457031 C 134.738281 15.777344 129.78125 18.074219 125.390625 21.4375 C 123.875 22.597656 125.453125 25.132812 126.984375 23.957031 " fill-opacity="1" fill-rule="nonzero"/><path fill="#ffe3e4" d="M 144.261719 63.621094 C 147.238281 59.769531 151.132812 57.679688 156.089844 58.734375 C 157.972656 59.136719 158.664062 56.234375 156.785156 55.835938 C 150.84375 54.570312 145.710938 56.886719 142.078125 61.589844 C 140.914062 63.101562 143.085938 65.144531 144.261719 63.621094 " fill-opacity="1" fill-rule="nonzero"/><path fill="#ffe3e4" d="M 43.699219 101.589844 C 46.5 101.910156 49.261719 102.578125 51.269531 104.679688 C 52.972656 106.460938 53.359375 109.207031 53.5 111.554688 C 53.613281 113.46875 56.597656 113.371094 56.484375 111.453125 C 56.308594 108.472656 55.703125 105.4375 53.78125 103.058594 C 51.488281 100.210938 47.910156 99.09375 44.394531 98.691406 C 42.5 98.476562 41.792969 101.371094 43.699219 101.589844 " fill-opacity="1" fill-rule="nonzero"/><path fill="#1c1b1b" d="M 138.082031 118.644531 C 137.035156 121.464844 135.882812 123.640625 134.699219 125.300781 C 134.007812 126.269531 133.3125 127.0625 132.621094 127.707031 C 130.738281 129.480469 128.886719 130.1875 127.339844 130.414062 C 124.609375 130.8125 121.980469 129.84375 119.785156 128.140625 C 117.664062 126.53125 115.941406 124.25 114.902344 121.894531 C 114.820312 121.734375 114.828125 121.550781 114.917969 121.386719 C 115.003906 121.234375 115.160156 121.121094 115.339844 121.09375 L 137.460938 117.878906 C 137.664062 117.847656 137.863281 117.9375 137.988281 118.089844 C 138.117188 118.246094 138.160156 118.457031 138.082031 118.644531 " fill-opacity="1" fill-rule="nonzero"/><path fill="#f5f7f7" d="M 132.5625 118.589844 L 132.628906 119.054688 C 132.761719 119.96875 131.398438 120.929688 129.585938 121.191406 C 128.203125 121.394531 126.960938 121.125 126.390625 120.574219 C 126.003906 121.265625 124.882812 121.878906 123.496094 122.078125 C 121.683594 122.34375 120.113281 121.808594 119.976562 120.894531 L 119.910156 120.429688 L 132.5625 118.589844 " fill-opacity="1" fill-rule="nonzero"/><path fill="#f2f4f4" d="M 111.339844 103.558594 C 111.945312 109.832031 107.339844 115.402344 101.054688 116.003906 C 94.769531 116.609375 89.1875 112.015625 88.578125 105.746094 C 87.972656 99.476562 92.578125 93.90625 98.863281 93.300781 C 105.148438 92.699219 110.734375 97.292969 111.339844 103.558594 " fill-opacity="1" fill-rule="nonzero"/><path fill="#181919" d="M 109.054688 103.539062 C 109.5 108.1875 106.089844 112.320312 101.425781 112.769531 C 96.769531 113.214844 92.625 109.808594 92.175781 105.160156 C 91.726562 100.511719 95.140625 96.378906 99.800781 95.929688 C 104.460938 95.484375 108.605469 98.886719 109.054688 103.539062 " fill-opacity="1" fill-rule="nonzero"/><path fill="#f2f4f4" d="M 96.660156 102.0625 C 96.800781 103.507812 95.742188 104.789062 94.289062 104.929688 C 92.84375 105.070312 91.558594 104.007812 91.417969 102.566406 C 91.277344 101.121094 92.335938 99.835938 93.785156 99.695312 C 95.234375 99.554688 96.519531 100.613281 96.660156 102.0625 " fill-opacity="1" fill-rule="nonzero"/><path fill="#f2f4f4" d="M 160.5 98.800781 C 161.101562 105.058594 156.511719 110.617188 150.242188 111.21875 C 143.972656 111.820312 138.402344 107.238281 137.796875 100.984375 C 137.191406 94.730469 141.785156 89.171875 148.050781 88.574219 C 154.324219 87.96875 159.894531 92.546875 160.5 98.800781 " fill-opacity="1" fill-rule="nonzero"/><path fill="#181919" d="M 158.210938 98.703125 C 158.660156 103.355469 155.242188 107.484375 150.578125 107.9375 C 145.921875 108.382812 141.78125 104.976562 141.328125 100.324219 C 140.882812 95.675781 144.296875 91.542969 148.953125 91.097656 C 153.617188 90.648438 157.761719 94.054688 158.210938 98.703125 " fill-opacity="1" fill-rule="nonzero"/><path fill="#f2f4f4" d="M 146.046875 97.257812 C 146.1875 98.703125 145.121094 99.988281 143.675781 100.125 C 142.230469 100.265625 140.941406 99.207031 140.804688 97.761719 C 140.664062 96.316406 141.726562 95.03125 143.171875 94.894531 C 144.621094 94.753906 145.90625 95.8125 146.046875 97.257812 " fill-opacity="1" fill-rule="nonzero"/><path fill="#ffc6c6" d="M 163.269531 112.4375 L 87.617188 119.039062 L 86.78125 109.53125 L 123.988281 107.859375 L 162.4375 102.929688 L 163.269531 112.4375 " fill-opacity="1" fill-rule="nonzero"/><path fill="#fc7a8c" d="M 182.84375 102.804688 C 184.519531 105.992188 181.898438 110.214844 176.988281 112.242188 C 172.074219 114.261719 166.734375 113.316406 165.054688 110.128906 C 163.375 106.941406 165.992188 102.714844 170.910156 100.691406 C 175.820312 98.667969 181.164062 99.617188 182.84375 102.804688 " fill-opacity="1" fill-rule="nonzero"/><path fill="#fc7a8c" d="M 87.136719 117.632812 C 87.144531 121.378906 82.140625 124.445312 75.957031 124.484375 C 69.777344 124.519531 64.757812 121.511719 64.746094 117.765625 C 64.738281 114.023438 69.746094 110.953125 75.925781 110.917969 C 82.109375 110.878906 87.128906 113.886719 87.136719 117.632812 " fill-opacity="1" fill-rule="nonzero"/><path fill="#2e3030" d="M 36.546875 127.875 C 36.347656 127.609375 36.03125 127.449219 35.699219 127.449219 C 35.46875 127.449219 35.253906 127.523438 35.070312 127.660156 L 34.121094 128.359375 C 23.851562 135.984375 22.691406 136.839844 9.582031 141.828125 L 4.570312 138.441406 C 4.394531 138.324219 4.191406 138.261719 3.980469 138.261719 C 3.628906 138.261719 3.300781 138.4375 3.101562 138.726562 C 2.777344 139.207031 2.902344 139.863281 3.386719 140.1875 L 6.8125 142.5 L 1.839844 143.753906 C 1.273438 143.894531 0.929688 144.46875 1.074219 145.03125 C 1.191406 145.503906 1.613281 145.828125 2.097656 145.828125 C 2.183594 145.828125 2.273438 145.816406 2.355469 145.796875 L 7.203125 144.574219 L 4.90625 148.660156 C 4.769531 148.90625 4.734375 149.191406 4.808594 149.460938 C 4.886719 149.730469 5.0625 149.957031 5.308594 150.09375 C 5.464844 150.183594 5.644531 150.230469 5.824219 150.230469 C 6.207031 150.230469 6.5625 150.023438 6.746094 149.691406 L 9.992188 143.925781 C 9.996094 143.921875 10.003906 143.921875 10.007812 143.917969 C 23.707031 138.714844 24.8125 137.894531 35.382812 130.046875 L 36.328125 129.347656 C 36.554688 129.179688 36.703125 128.933594 36.742188 128.65625 C 36.785156 128.378906 36.714844 128.097656 36.546875 127.875 " fill-opacity="1" fill-rule="nonzero"/><g clip-path="url(#b0934bc29d)"><path fill="#2e3030" d="M 234.96875 47.546875 C 234.800781 47.167969 234.421875 46.925781 234.007812 46.925781 C 233.855469 46.925781 233.710938 46.957031 233.574219 47.019531 L 229.292969 48.945312 L 230.9375 44.230469 C 231.03125 43.964844 231.011719 43.679688 230.890625 43.425781 C 230.769531 43.171875 230.554688 42.984375 230.289062 42.890625 C 230.175781 42.851562 230.058594 42.832031 229.941406 42.832031 C 229.492188 42.832031 229.09375 43.117188 228.945312 43.539062 L 227.253906 48.371094 L 225.246094 44.761719 C 225.0625 44.429688 224.703125 44.222656 224.324219 44.222656 C 224.144531 44.222656 223.96875 44.269531 223.8125 44.355469 C 223.300781 44.636719 223.117188 45.277344 223.398438 45.785156 L 226.339844 51.0625 C 220.320312 63.414062 218.996094 64.898438 210.789062 74.082031 L 209.511719 75.511719 C 209.328125 75.71875 209.230469 75.988281 209.25 76.269531 C 209.265625 76.550781 209.390625 76.808594 209.601562 76.996094 C 209.792969 77.167969 210.042969 77.265625 210.300781 77.265625 C 210.605469 77.265625 210.890625 77.132812 211.089844 76.910156 L 212.363281 75.484375 C 220.625 66.242188 222.109375 64.578125 228.390625 51.667969 C 228.394531 51.664062 228.394531 51.660156 228.394531 51.65625 L 234.441406 48.9375 C 234.699219 48.824219 234.894531 48.613281 234.996094 48.351562 C 235.09375 48.089844 235.085938 47.800781 234.96875 47.546875 " fill-opacity="1" fill-rule="nonzero"/></g></svg>