<svg xmlns="http://www.w3.org/2000/svg" xmlns:xlink="http://www.w3.org/1999/xlink" width="301" zoomAndPan="magnify" viewBox="0 0 225.75 233.249991" height="311" preserveAspectRatio="xMidYMid meet" version="1.0"><defs><clipPath id="21b92df9b1"><path d="M 22 73 L 80 73 L 80 130.445312 L 22 130.445312 Z M 22 73 " clip-rule="nonzero"/></clipPath><clipPath id="7519ad145d"><path d="M 77 0.21875 L 83 0.21875 L 83 6 L 77 6 Z M 77 0.21875 " clip-rule="nonzero"/></clipPath><clipPath id="9cf4fe1c6f"><path d="M 0.273438 105 L 6 105 L 6 110 L 0.273438 110 Z M 0.273438 105 " clip-rule="nonzero"/></clipPath><clipPath id="c78ee44f34"><path d="M 113.113281 191 L 137 191 L 137 232.359375 L 113.113281 232.359375 Z M 113.113281 191 " clip-rule="nonzero"/></clipPath><clipPath id="dc96c04242"><path d="M 0.273438 134 L 9 134 L 9 143 L 0.273438 143 Z M 0.273438 134 " clip-rule="nonzero"/></clipPath><clipPath id="56c3ab1fb7"><path d="M 173 47.5 L 212 47.5 L 212 66 L 173 66 Z M 173 47.5 " clip-rule="nonzero"/></clipPath></defs><path fill="#fe5275" d="M 150.558594 80.804688 C 153.953125 81.15625 158.148438 83.136719 158.78125 87.554688 C 159.0625 89.484375 158.566406 91.246094 157.398438 92.507812 C 156.25 93.75 154.574219 94.359375 152.6875 94.226562 C 150.152344 94.046875 148.070312 92.929688 146.496094 90.910156 C 144.636719 88.519531 143.703125 85.210938 143.4375 81.941406 C 145.6875 81 148.070312 80.546875 150.558594 80.804688 Z M 162.601562 80.566406 C 160.042969 76.902344 156.347656 74.714844 151.910156 74.234375 C 149.359375 73.960938 146.597656 74.257812 143.851562 75.050781 C 145.710938 66.222656 151.898438 60.398438 158.335938 55.417969 C 159.195312 54.757812 159.441406 53.492188 158.921875 52.410156 C 158.449219 51.425781 157.460938 50.929688 156.464844 51.175781 C 145.816406 53.8125 139.1875 65.160156 137.53125 74.589844 C 137.335938 75.714844 137.195312 76.863281 137.125 78.019531 C 135.546875 78.980469 134.046875 80.101562 132.683594 81.363281 C 123.019531 90.308594 116.933594 103.34375 115.085938 119.0625 C 114.988281 119.898438 115.351562 120.667969 115.984375 121.105469 C 116.257812 121.296875 116.582031 121.425781 116.941406 121.472656 C 118.089844 121.613281 119.066406 120.832031 119.222656 119.652344 C 120.335938 111.175781 123.96875 102.410156 129.730469 94.304688 C 131.84375 91.328125 134.507812 88.132812 137.578125 85.589844 C 138.957031 92.875 143.144531 99.171875 150.539062 100.714844 C 155.597656 101.769531 160.242188 99.914062 162.96875 95.753906 C 165.933594 91.226562 165.785156 85.125 162.601562 80.566406 " fill-opacity="1" fill-rule="nonzero"/><path fill="#ffd032" d="M 85.257812 63.230469 C 84.011719 64.710938 81.425781 67.070312 78.171875 66.25 C 76.636719 65.863281 75.464844 64.878906 75.105469 63.675781 C 74.804688 62.679688 75.109375 61.648438 75.980469 60.695312 C 77.019531 59.558594 78.273438 58.980469 79.8125 58.929688 C 82.089844 58.851562 84.570312 59.9375 86.65625 61.316406 C 86.21875 62.003906 85.753906 62.644531 85.257812 63.230469 Z M 100.15625 111.367188 C 103.175781 98.898438 105.628906 86.734375 102.476562 75.027344 C 100.921875 69.269531 97.59375 63.183594 92.90625 59.03125 C 93.9375 56.609375 94.679688 54.117188 95.09375 51.875 C 97.265625 40.140625 93.648438 28.027344 85.648438 20.261719 C 84.832031 19.46875 83.632812 19.464844 82.792969 20.246094 C 81.980469 21 81.652344 22.398438 82.507812 23.429688 C 88.710938 30.941406 91.652344 40.410156 90.578125 49.414062 C 90.285156 51.859375 89.769531 54.164062 89.046875 56.261719 C 86.609375 54.886719 83.914062 54.035156 80.996094 53.910156 C 76.628906 53.730469 71.695312 56.183594 70.710938 61.226562 C 69.941406 65.175781 72.386719 69.011719 76.519531 70.351562 C 79.46875 71.304688 82.308594 70.984375 84.957031 69.398438 C 86.917969 68.226562 88.652344 66.382812 90.117188 64.214844 C 93.996094 68.277344 95.957031 73.507812 96.925781 77.273438 C 99.117188 85.773438 97.945312 94.78125 96.808594 103.496094 C 96.511719 105.761719 96.207031 108.105469 95.96875 110.394531 C 95.882812 111.226562 96.296875 112.035156 96.96875 112.503906 C 97.242188 112.691406 97.558594 112.828125 97.898438 112.886719 C 98.964844 113.074219 99.894531 112.449219 100.15625 111.367188 " fill-opacity="1" fill-rule="nonzero"/><g clip-path="url(#21b92df9b1)"><path fill="#68cddf" d="M 47.214844 105.253906 C 47.441406 110.148438 45.863281 115.03125 41.429688 118.238281 C 38.722656 120.191406 34.480469 121.625 30.691406 119.796875 C 28.460938 118.714844 27.074219 116.898438 26.886719 114.8125 C 26.699219 112.699219 27.75 110.648438 29.765625 109.183594 C 34.527344 105.722656 41.128906 104.738281 47.214844 105.253906 Z M 78.90625 128.070312 Z M 79.796875 127.808594 C 76.289062 115.753906 67.402344 106.367188 56.027344 102.691406 C 54.613281 102.234375 53.125 101.851562 51.59375 101.558594 C 49.035156 88.265625 36.945312 80.195312 25.355469 74.035156 C 24.457031 73.558594 23.4375 73.875 22.925781 74.789062 C 22.453125 75.648438 22.5625 76.894531 23.582031 77.496094 C 31.039062 81.894531 40.316406 87.371094 44.789062 96.207031 C 45.53125 97.667969 46.132812 99.261719 46.554688 100.914062 C 38.609375 100.402344 30.359375 102.234375 25.527344 107.453125 C 22.578125 110.636719 21.960938 114.484375 23.835938 118.007812 C 24.070312 118.453125 24.34375 118.882812 24.640625 119.296875 C 27.339844 122.996094 32.398438 125.148438 37.03125 124.40625 C 45.667969 123.023438 51.910156 115.074219 52.015625 105.984375 C 52.898438 106.179688 53.753906 106.410156 54.570312 106.664062 C 65.039062 109.910156 73.195312 118.246094 76.394531 128.957031 C 76.683594 129.925781 77.574219 130.425781 78.515625 130.144531 C 79.402344 129.882812 80.125 128.933594 79.796875 127.808594 " fill-opacity="1" fill-rule="nonzero"/></g><path fill="#68cddf" d="M 127.574219 64.808594 C 125.644531 66.417969 123.621094 68.566406 122.8125 71 C 122.496094 71.949219 123.753906 73.066406 124.414062 72.035156 C 125.75 69.941406 126.742188 68.015625 128.625 66.296875 C 129.414062 65.574219 128.472656 64.058594 127.574219 64.808594 " fill-opacity="1" fill-rule="nonzero"/><path fill="#fe5275" d="M 77.082031 101.035156 C 74.574219 96.707031 71.34375 93.011719 67.402344 89.945312 C 66.464844 89.214844 65.519531 90.730469 66.382812 91.40625 C 70.210938 94.386719 73.316406 97.953125 75.753906 102.152344 C 76.359375 103.195312 77.640625 101.992188 77.082031 101.035156 " fill-opacity="1" fill-rule="nonzero"/><path fill="#fe5275" d="M 25.152344 101.277344 C 26.152344 97.359375 28.773438 94.425781 32.554688 93.015625 C 33.566406 92.636719 32.941406 90.894531 31.882812 91.289062 C 27.734375 92.835938 24.6875 96.222656 23.585938 100.527344 C 23.3125 101.597656 24.851562 102.441406 25.152344 101.277344 " fill-opacity="1" fill-rule="nonzero"/><path fill="#43e1b0" d="M 57.375 50.734375 C 57.789062 45.066406 55.347656 39.492188 50.1875 36.785156 C 44.917969 34.023438 38.664062 35.433594 34.414062 39.375 C 33.589844 40.132812 34.59375 41.734375 35.515625 40.929688 C 43.28125 34.121094 56.167969 39.863281 55.699219 50.449219 C 55.648438 51.585938 57.289062 51.949219 57.375 50.734375 " fill-opacity="1" fill-rule="nonzero"/><path fill="#43e1b0" d="M 86.703125 93.253906 C 86.148438 83.671875 73.324219 79.445312 65.367188 80.507812 C 64.128906 80.671875 64.449219 82.574219 65.640625 82.558594 C 69.488281 82.503906 73.371094 83.3125 76.859375 84.949219 C 80.179688 86.511719 84.621094 89.46875 85.027344 93.472656 C 85.148438 94.664062 86.769531 94.429688 86.703125 93.253906 " fill-opacity="1" fill-rule="nonzero"/><path fill="#43e1b0" d="M 167.398438 63.300781 C 170.199219 60.59375 173.988281 59.460938 177.804688 60.207031 C 178.914062 60.425781 179.085938 58.574219 178.023438 58.367188 C 173.789062 57.539062 169.460938 58.808594 166.347656 61.808594 C 165.574219 62.554688 166.5625 64.105469 167.398438 63.300781 " fill-opacity="1" fill-rule="nonzero"/><path fill="#fe5275" d="M 14.722656 78.125 L 13.835938 76.519531 C 13.722656 76.3125 13.714844 76.0625 13.820312 75.851562 L 14.636719 74.210938 C 14.898438 73.679688 14.441406 73.074219 13.863281 73.1875 L 12.066406 73.539062 C 11.835938 73.582031 11.597656 73.511719 11.433594 73.347656 L 10.128906 72.0625 C 9.707031 71.644531 8.996094 71.894531 8.921875 72.484375 L 8.699219 74.304688 C 8.667969 74.539062 8.527344 74.742188 8.320312 74.851562 L 6.699219 75.703125 C 6.175781 75.976562 6.191406 76.734375 6.726562 76.984375 L 8.382812 77.761719 C 8.597656 77.859375 8.746094 78.058594 8.785156 78.292969 L 9.089844 80.101562 C 9.1875 80.6875 9.910156 80.90625 10.3125 80.472656 L 11.558594 79.128906 C 11.71875 78.957031 11.953125 78.875 12.1875 78.910156 L 13.996094 79.179688 C 14.578125 79.265625 15.007812 78.644531 14.722656 78.125 " fill-opacity="1" fill-rule="nonzero"/><path fill="#68cddf" d="M 68.175781 27.074219 L 67.289062 25.46875 C 67.175781 25.265625 67.167969 25.015625 67.273438 24.804688 L 68.089844 23.160156 C 68.351562 22.628906 67.894531 22.027344 67.316406 22.140625 L 65.519531 22.488281 C 65.289062 22.535156 65.054688 22.460938 64.886719 22.296875 L 63.582031 21.011719 C 63.160156 20.597656 62.449219 20.847656 62.375 21.433594 L 62.152344 23.257812 C 62.125 23.492188 61.980469 23.695312 61.773438 23.804688 L 60.152344 24.652344 C 59.628906 24.929688 59.644531 25.683594 60.179688 25.9375 L 61.835938 26.714844 C 62.050781 26.8125 62.203125 27.007812 62.238281 27.242188 L 62.542969 29.054688 C 62.640625 29.636719 63.363281 29.855469 63.765625 29.421875 L 65.011719 28.082031 C 65.171875 27.90625 65.40625 27.824219 65.640625 27.859375 L 67.449219 28.128906 C 68.03125 28.214844 68.460938 27.59375 68.175781 27.074219 " fill-opacity="1" fill-rule="nonzero"/><path fill="#ffd032" d="M 141.394531 27.003906 L 140.507812 25.398438 C 140.394531 25.191406 140.390625 24.945312 140.496094 24.734375 L 141.308594 23.089844 C 141.570312 22.558594 141.113281 21.957031 140.535156 22.066406 L 138.742188 22.417969 C 138.507812 22.460938 138.273438 22.390625 138.105469 22.226562 L 136.800781 20.941406 C 136.378906 20.523438 135.664062 20.773438 135.59375 21.363281 L 135.371094 23.1875 C 135.34375 23.417969 135.199219 23.625 134.992188 23.734375 L 133.371094 24.582031 C 132.847656 24.855469 132.863281 25.613281 133.402344 25.863281 L 135.058594 26.640625 C 135.269531 26.742188 135.417969 26.9375 135.457031 27.171875 L 135.761719 28.980469 C 135.859375 29.566406 136.582031 29.785156 136.984375 29.351562 L 138.234375 28.007812 C 138.390625 27.835938 138.625 27.753906 138.859375 27.789062 L 140.667969 28.058594 C 141.25 28.144531 141.679688 27.523438 141.394531 27.003906 " fill-opacity="1" fill-rule="nonzero"/><path fill="#68cddf" d="M 50.519531 71.996094 C 51.273438 70.910156 51.003906 69.417969 49.921875 68.664062 C 48.839844 67.910156 47.351562 68.179688 46.601562 69.265625 C 45.851562 70.355469 46.121094 71.847656 47.203125 72.601562 C 48.285156 73.355469 49.769531 73.085938 50.519531 71.996094 " fill-opacity="1" fill-rule="nonzero"/><path fill="#7870de" d="M 116.875 45.210938 C 117.625 44.125 117.355469 42.632812 116.273438 41.878906 C 115.191406 41.125 113.707031 41.394531 112.957031 42.484375 C 112.203125 43.570312 112.472656 45.0625 113.554688 45.816406 C 114.636719 46.570312 116.125 46.296875 116.875 45.210938 " fill-opacity="1" fill-rule="nonzero"/><path fill="#fe5275" d="M 11.230469 50.316406 C 11.980469 49.230469 11.710938 47.738281 10.628906 46.984375 C 9.546875 46.230469 8.058594 46.5 7.308594 47.589844 C 6.558594 48.675781 6.828125 50.167969 7.910156 50.921875 C 8.996094 51.675781 10.480469 51.40625 11.230469 50.316406 " fill-opacity="1" fill-rule="nonzero"/><g clip-path="url(#7519ad145d)"><path fill="#fe5275" d="M 82.152344 4.289062 C 82.90625 3.199219 82.636719 1.710938 81.554688 0.953125 C 80.46875 0.199219 78.984375 0.472656 78.234375 1.558594 C 77.484375 2.644531 77.753906 4.136719 78.835938 4.890625 C 79.917969 5.644531 81.402344 5.375 82.152344 4.289062 " fill-opacity="1" fill-rule="nonzero"/></g><path fill="#fe5275" d="M 116.542969 82.003906 C 117.292969 80.914062 117.023438 79.421875 115.941406 78.667969 C 114.859375 77.914062 113.375 78.1875 112.625 79.273438 C 111.871094 80.359375 112.140625 81.851562 113.222656 82.605469 C 114.308594 83.359375 115.792969 83.089844 116.542969 82.003906 " fill-opacity="1" fill-rule="nonzero"/><g clip-path="url(#9cf4fe1c6f)"><path fill="#ffd032" d="M 4.992188 108.949219 C 5.742188 107.863281 5.472656 106.371094 4.390625 105.617188 C 3.308594 104.863281 1.820312 105.132812 1.070312 106.21875 C 0.320312 107.308594 0.589844 108.800781 1.671875 109.550781 C 2.753906 110.304688 4.242188 110.039062 4.992188 108.949219 " fill-opacity="1" fill-rule="nonzero"/></g><path fill="#ffc6c6" d="M 197.679688 129.210938 C 195.976562 119.988281 188.414062 113.644531 179.816406 112.609375 C 181.753906 106.65625 181.214844 99.976562 178.433594 94.359375 C 174.300781 86 164.640625 81.90625 155.695312 83.566406 C 154.625 83.765625 153.59375 84.082031 152.5625 84.421875 L 149.347656 85.496094 C 146.886719 81.164062 143.597656 77.523438 139.59375 74.53125 C 137.421875 72.910156 134.847656 71.582031 132.242188 70.859375 C 126.746094 69.332031 124.714844 69.371094 119.042969 69.84375 C 113.894531 70.269531 108.101562 73.628906 104.273438 76.980469 C 102.5625 78.480469 101.050781 80.144531 99.710938 81.9375 C 94.710938 79.597656 89.34375 77.917969 84.035156 77.457031 C 81.285156 77.21875 78.335938 77.210938 75.671875 77.992188 C 69.707031 79.746094 70.125 79.730469 65.019531 83.148438 C 63.238281 84.339844 61.953125 86.246094 60.628906 87.917969 C 58.128906 91.085938 56.421875 96.609375 56.285156 100.613281 C 56.273438 100.832031 56.269531 101.054688 56.265625 101.277344 C 56.171875 101.292969 56.078125 101.308594 55.984375 101.324219 C 53.082031 101.511719 51.476562 102.453125 48.789062 103.5 C 44.636719 105.109375 41.539062 108.527344 38.816406 111.921875 C 34.425781 117.394531 33.355469 126.261719 35.003906 132.964844 C 35.398438 135.054688 36.074219 137.007812 37.023438 138.820312 C 29.480469 142.957031 24.839844 151.910156 26.492188 160.863281 C 28.207031 170.183594 35.910156 176.554688 44.621094 177.492188 C 44.667969 178.300781 44.761719 179.113281 44.910156 179.925781 C 47.003906 191.28125 57.691406 198.320312 68.546875 196.417969 C 72.476562 195.734375 75.109375 193.988281 77.886719 191.324219 C 78.390625 192.101562 78.941406 192.847656 79.546875 193.550781 C 80.851562 194.71875 82.15625 195.886719 83.460938 197.054688 C 86.457031 199.09375 89.746094 200.269531 93.328125 200.574219 C 96.003906 200.988281 98.859375 200.773438 101.488281 200.15625 C 106.496094 198.984375 109.542969 197.34375 113.636719 194.214844 C 116.101562 192.332031 117.996094 189.503906 119.210938 186.445312 C 119.90625 187.089844 120.640625 187.703125 121.421875 188.273438 C 123.445312 189.757812 125.742188 190.859375 128.042969 191.796875 C 132.191406 193.484375 136.148438 193.285156 140.460938 192.824219 C 144.539062 192.386719 148.488281 189.808594 151.648438 187.386719 C 153.667969 185.839844 155.445312 183.625 156.714844 181.351562 C 157.515625 179.785156 158.316406 178.214844 159.117188 176.644531 C 159.257812 176.238281 159.386719 175.835938 159.503906 175.429688 C 163.636719 177.792969 168.574219 178.757812 173.488281 177.898438 C 184.351562 176 192.511719 164.484375 190.464844 153.371094 C 190.234375 152.117188 189.890625 150.921875 189.453125 149.777344 C 195.609375 145.214844 199.152344 137.214844 197.679688 129.210938 " fill-opacity="1" fill-rule="nonzero"/><path fill="#ffa0a2" d="M 58.367188 99.171875 C 60.023438 90.90625 66.273438 84.222656 73.636719 80.71875 C 82.339844 76.574219 92.355469 77.550781 100.390625 82.773438 C 102.332031 84.035156 104.410156 81.070312 102.457031 79.800781 C 93.371094 73.894531 82.347656 72.84375 72.4375 77.273438 C 63.6875 81.1875 56.722656 89.226562 54.804688 98.8125 C 54.339844 101.113281 57.914062 101.445312 58.367188 99.171875 " fill-opacity="1" fill-rule="nonzero"/><path fill="#ffa0a2" d="M 103.246094 81.230469 C 107.835938 72.65625 117.808594 69.722656 126.867188 70.730469 C 136.785156 71.832031 145.949219 77.949219 149.15625 87.796875 C 149.878906 90.015625 153.117188 88.449219 152.398438 86.246094 C 148.988281 75.777344 139.410156 69.21875 129.03125 67.371094 C 119.332031 65.644531 108.285156 68.316406 102.027344 76.445312 C 101.378906 77.289062 100.824219 78.195312 100.320312 79.132812 C 99.230469 81.167969 102.144531 83.292969 103.246094 81.230469 " fill-opacity="1" fill-rule="nonzero"/><path fill="#ffa0a2" d="M 59.898438 97.933594 C 50.214844 97.976562 41.128906 103.175781 35.785156 111.339844 C 33.1875 115.304688 31.628906 120.003906 31.523438 124.773438 C 31.410156 130.023438 33.1875 134.957031 36.109375 139.234375 C 37.425781 141.160156 40.15625 138.804688 38.851562 136.890625 C 33.925781 129.683594 34.074219 120.738281 38.710938 113.4375 C 43.183594 106.394531 51.242188 101.59375 59.546875 101.554688 C 61.835938 101.546875 62.203125 97.925781 59.898438 97.933594 " fill-opacity="1" fill-rule="nonzero"/><path fill="#ffa0a2" d="M 36.714844 136.417969 C 28.289062 141.792969 21.757812 150.90625 23.699219 161.457031 C 25.605469 171.792969 35.015625 177.964844 44.644531 179.578125 C 46.929688 179.960938 47.257812 176.335938 44.996094 175.957031 C 36.96875 174.613281 29.132812 169.640625 27.289062 161.121094 C 25.363281 152.246094 31.164062 144.222656 38.242188 139.710938 C 39.066406 139.183594 39.554688 138.269531 39.101562 137.289062 C 38.722656 136.472656 37.546875 135.886719 36.714844 136.417969 " fill-opacity="1" fill-rule="nonzero"/><path fill="#ffa0a2" d="M 150.484375 85.210938 C 158.015625 82.789062 166.441406 84.207031 172.164062 89.933594 C 177.554688 95.335938 179.421875 103.402344 177.109375 110.699219 C 176.402344 112.929688 179.753906 114.210938 180.464844 111.976562 C 183.175781 103.425781 181.140625 94.023438 174.902344 87.59375 C 168.039062 80.515625 158.050781 78.996094 148.960938 81.917969 C 148.027344 82.214844 147.730469 83.53125 148.101562 84.335938 C 148.554688 85.324219 149.554688 85.507812 150.484375 85.210938 " fill-opacity="1" fill-rule="nonzero"/><path fill="#ffa0a2" d="M 179.207031 113.265625 C 187.425781 114.398438 194.96875 119.484375 197.128906 127.953125 C 199.046875 135.480469 195.980469 143.507812 189.519531 147.710938 C 188.699219 148.246094 188.207031 149.144531 188.664062 150.132812 C 189.035156 150.941406 190.222656 151.539062 191.046875 151.003906 C 198.800781 145.957031 202.808594 136.824219 200.722656 127.609375 C 198.40625 117.363281 189.445312 111.003906 179.558594 109.644531 C 177.261719 109.328125 176.925781 112.953125 179.207031 113.265625 " fill-opacity="1" fill-rule="nonzero"/><path fill="#ffa0a2" d="M 43.703125 172.136719 C 42.699219 177.027344 42.96875 182.121094 45.015625 186.710938 C 46.867188 190.863281 50.222656 194.054688 54.210938 196.054688 C 63.832031 200.878906 75.148438 196.695312 82.644531 189.871094 C 84.359375 188.308594 82.0625 185.515625 80.335938 187.085938 C 73.777344 193.058594 64.585938 196.640625 56.054688 192.921875 C 52.710938 191.464844 50.015625 188.75 48.398438 185.460938 C 46.417969 181.433594 46.378906 176.820312 47.269531 172.492188 C 47.742188 170.195312 44.171875 169.867188 43.703125 172.136719 " fill-opacity="1" fill-rule="nonzero"/><path fill="#ffa0a2" d="M 76.828125 193.621094 C 81.960938 200.210938 90.050781 203.273438 98.175781 202.941406 C 107.800781 202.542969 116.253906 196.625 121.664062 188.808594 C 122.996094 186.890625 120.070312 184.792969 118.738281 186.710938 C 113.824219 193.808594 106.5625 198.738281 97.921875 199.335938 C 90.980469 199.8125 83.894531 196.832031 79.570312 191.28125 C 78.136719 189.441406 75.398438 191.785156 76.828125 193.621094 " fill-opacity="1" fill-rule="nonzero"/><path fill="#ffa0a2" d="M 119.453125 189.296875 C 127.464844 195.128906 137.554688 197.332031 146.875 193.5 C 156.601562 189.496094 162.359375 179.757812 164.558594 169.742188 C 164.769531 168.773438 163.832031 167.839844 162.949219 167.753906 C 161.890625 167.648438 161.203125 168.417969 160.992188 169.386719 C 159.066406 178.171875 153.980469 186.378906 145.648438 190.078125 C 137.535156 193.679688 128.476562 191.386719 121.519531 186.328125 C 119.640625 184.957031 117.574219 187.929688 119.453125 189.296875 " fill-opacity="1" fill-rule="nonzero"/><path fill="#ffa0a2" d="M 159.523438 178.820312 C 170.035156 181.398438 181.292969 178.855469 188.011719 169.78125 C 194.027344 161.65625 193.722656 150.589844 187.695312 142.601562 C 186.289062 140.738281 183.550781 143.085938 184.957031 144.945312 C 190.003906 151.640625 190.042969 160.558594 185.277344 167.417969 C 179.78125 175.328125 169.6875 177.597656 160.78125 175.410156 C 158.5625 174.867188 157.285156 178.269531 159.523438 178.820312 " fill-opacity="1" fill-rule="nonzero"/><path fill="#ffa0a2" d="M 99.175781 81.960938 C 101.125 84.078125 102.519531 86.28125 103.386719 89.058594 C 103.679688 90.007812 104.976562 90.308594 105.769531 89.929688 C 106.738281 89.46875 106.921875 88.457031 106.628906 87.511719 C 105.679688 84.46875 104.050781 81.933594 101.917969 79.617188 C 100.347656 77.910156 97.59375 80.238281 99.175781 81.960938 " fill-opacity="1" fill-rule="nonzero"/><path fill="#ffa0a2" d="M 62.980469 169.65625 C 65.46875 163.835938 66.210938 156.875 62.289062 151.515625 C 58.488281 146.316406 51.480469 145.527344 45.660156 146.683594 C 43.847656 147.042969 44.328125 149.910156 46.144531 149.550781 C 51.132812 148.558594 56.75 149.0625 60.097656 153.390625 C 63.472656 157.753906 62.292969 163.96875 60.296875 168.636719 C 59.554688 170.363281 62.246094 171.371094 62.980469 169.65625 " fill-opacity="1" fill-rule="nonzero"/><path fill="#ffa0a2" d="M 162.515625 113.738281 C 157.808594 117.527344 155.179688 123.984375 158.886719 129.429688 C 162.738281 135.089844 170.257812 133.621094 175.121094 130.4375 C 176.667969 129.421875 174.808594 127.203125 173.273438 128.210938 C 169.503906 130.675781 164.097656 131.710938 161.078125 127.558594 C 158.171875 123.554688 161.125 118.570312 164.359375 115.960938 C 165.808594 114.796875 163.964844 112.570312 162.515625 113.738281 " fill-opacity="1" fill-rule="nonzero"/><path fill="#ffa0a2" d="M 104.871094 181.5625 C 108.332031 171.867188 123.203125 168.628906 128.773438 178.179688 C 129.703125 179.777344 132.308594 178.554688 131.363281 176.9375 C 124.578125 165.304688 106.558594 168.292969 102.1875 180.542969 C 101.554688 182.308594 104.242188 183.328125 104.871094 181.5625 " fill-opacity="1" fill-rule="nonzero"/><path fill="#ffa0a2" d="M 172.414062 128.816406 C 168.5625 133.03125 168.820312 138.253906 171.785156 142.914062 C 172.789062 144.484375 174.972656 142.597656 173.976562 141.039062 C 171.945312 137.847656 171.578125 133.976562 174.257812 131.042969 C 175.496094 129.6875 173.667969 127.4375 172.414062 128.816406 " fill-opacity="1" fill-rule="nonzero"/><path fill="#ffa0a2" d="M 47.457031 149.292969 C 51.886719 147.414062 56.109375 140.472656 53.605469 135.726562 C 52.738281 134.082031 50.136719 135.308594 51.015625 136.96875 C 52.777344 140.316406 49.257812 145.375 46.238281 146.65625 C 44.53125 147.382812 45.753906 150.015625 47.457031 149.292969 " fill-opacity="1" fill-rule="nonzero"/><path fill="#ffa0a2" d="M 131.496094 177.503906 C 131.695312 173.621094 135.097656 171.484375 138.328125 170.1875 C 140.050781 169.496094 138.824219 166.867188 137.109375 167.550781 C 132.945312 169.222656 128.898438 172.3125 128.640625 177.21875 C 128.546875 179.089844 131.394531 179.378906 131.496094 177.503906 " fill-opacity="1" fill-rule="nonzero"/><path fill="#ffa0a2" d="M 120.394531 108.71875 C 122.492188 103.1875 127.246094 98.847656 133.339844 99.105469 C 138.804688 99.335938 142.65625 103.496094 142.933594 108.957031 C 143.027344 110.828125 145.851562 110.3125 145.757812 108.460938 C 145.417969 101.78125 140.402344 96.785156 133.894531 96.226562 C 126.4375 95.585938 120.273438 100.933594 117.710938 107.699219 C 117.042969 109.453125 119.730469 110.46875 120.394531 108.71875 " fill-opacity="1" fill-rule="nonzero"/><path fill="#ffa0a2" d="M 69.371094 123.324219 C 69.640625 117.34375 72.800781 111.734375 78.679688 109.902344 C 84.074219 108.226562 89.710938 110.285156 93.078125 114.800781 C 94.191406 116.300781 96.382812 114.421875 95.269531 112.929688 C 91.253906 107.535156 84.328125 105.125 77.929688 107.117188 C 70.953125 109.285156 66.847656 115.820312 66.519531 123.039062 C 66.433594 124.910156 69.285156 125.199219 69.371094 123.324219 " fill-opacity="1" fill-rule="nonzero"/><path fill="#ffe3e4" d="M 64.78125 94.824219 C 67.5625 88.515625 73.660156 84.34375 80.304688 83.339844 C 81.859375 83.105469 81.441406 80.671875 79.890625 80.902344 C 72.367188 82.039062 65.632812 86.859375 62.496094 93.957031 C 61.851562 95.417969 64.140625 96.269531 64.78125 94.824219 " fill-opacity="1" fill-rule="nonzero"/><path fill="#ffe3e4" d="M 39.933594 121.800781 C 42.058594 114.363281 47.765625 109.105469 54.785156 106.4375 C 56.253906 105.875 55.210938 103.640625 53.746094 104.195312 C 46.195312 107.070312 39.933594 112.945312 37.652344 120.933594 C 37.214844 122.460938 39.496094 123.335938 39.933594 121.800781 " fill-opacity="1" fill-rule="nonzero"/><path fill="#ffe3e4" d="M 108.761719 80.222656 C 111.527344 77.386719 114.761719 75.273438 118.773438 75.027344 C 120.339844 74.929688 119.910156 72.492188 118.359375 72.589844 C 113.96875 72.855469 110.226562 75.21875 107.195312 78.328125 C 106.101562 79.453125 107.65625 81.359375 108.761719 80.222656 " fill-opacity="1" fill-rule="nonzero"/><path fill="#ffe3e4" d="M 49.175781 153.050781 C 51.464844 152.980469 53.730469 153.234375 55.578125 154.710938 C 57.117188 155.929688 57.808594 158.007812 58.203125 159.867188 C 58.535156 161.421875 60.9375 161.007812 60.605469 159.445312 C 60.078125 156.992188 59.136719 154.550781 57.207031 152.882812 C 55.039062 151.003906 52.191406 150.503906 49.417969 150.589844 C 47.867188 150.636719 47.613281 153.101562 49.175781 153.050781 " fill-opacity="1" fill-rule="nonzero"/><path fill="#ffe3e4" d="M 73.742188 121.351562 C 74.523438 119.226562 75.480469 117.148438 77.144531 115.589844 C 78.871094 113.972656 81.1875 113.371094 83.453125 113.082031 C 85.015625 112.882812 84.59375 110.445312 83.039062 110.644531 C 80.304688 110.996094 77.6875 111.84375 75.574219 113.695312 C 73.566406 115.460938 72.371094 118.003906 71.460938 120.484375 C 70.910156 121.980469 73.191406 122.84375 73.742188 121.351562 " fill-opacity="1" fill-rule="nonzero"/><path fill="#ffe3e4" d="M 124.957031 108.390625 C 126.902344 104.941406 129.761719 102.8125 133.820312 103.121094 C 135.386719 103.238281 135.625 100.777344 134.0625 100.65625 C 129.183594 100.289062 125.34375 102.742188 122.96875 106.964844 C 122.195312 108.335938 124.179688 109.777344 124.957031 108.390625 " fill-opacity="1" fill-rule="nonzero"/><g clip-path="url(#c78ee44f34)"><path fill="#2e3030" d="M 115.679688 232.394531 C 115.289062 232.394531 114.917969 232.164062 114.761719 231.785156 C 113.398438 228.515625 113.164062 226.359375 114 224.785156 C 115.113281 222.691406 117.761719 222.15625 121.421875 221.417969 C 123.414062 221.019531 125.671875 220.5625 128.125 219.773438 C 137.078125 216.886719 135.8125 208.835938 132.351562 192.363281 C 132.242188 191.824219 132.585938 191.296875 133.125 191.183594 C 133.664062 191.070312 134.191406 191.417969 134.304688 191.953125 C 137.609375 207.699219 139.792969 218.101562 128.738281 221.667969 C 126.175781 222.492188 123.859375 222.960938 121.816406 223.371094 C 118.6875 224 116.429688 224.457031 115.757812 225.71875 C 115.242188 226.691406 115.515625 228.425781 116.597656 231.015625 C 116.8125 231.523438 116.570312 232.105469 116.0625 232.320312 C 115.9375 232.371094 115.808594 232.394531 115.679688 232.394531 " fill-opacity="1" fill-rule="nonzero"/></g><path fill="#2e3030" d="M 69.667969 208.417969 C 68.496094 208.417969 67.101562 207.789062 65.304688 206.476562 C 64.863281 206.152344 64.765625 205.527344 65.089844 205.085938 C 65.417969 204.640625 66.039062 204.542969 66.484375 204.871094 C 68.585938 206.40625 69.5625 206.535156 70.011719 206.371094 C 71.011719 206 71.609375 203.5 72.300781 200.605469 C 72.777344 198.617188 73.3125 196.363281 74.144531 193.914062 C 75.261719 190.617188 76.878906 188.542969 79.074219 187.574219 C 83.234375 185.746094 88.921875 187.992188 97.796875 191.898438 C 98.300781 192.121094 98.53125 192.707031 98.308594 193.210938 C 98.085938 193.714844 97.5 193.941406 96.996094 193.71875 C 88.617188 190.03125 83.285156 187.898438 79.878906 189.398438 C 78.21875 190.125 76.960938 191.8125 76.03125 194.554688 C 75.230469 196.917969 74.703125 199.121094 74.238281 201.066406 C 73.347656 204.800781 72.703125 207.5 70.699219 208.234375 C 70.375 208.355469 70.03125 208.417969 69.667969 208.417969 " fill-opacity="1" fill-rule="nonzero"/><path fill="#2e3030" d="M 3.953125 137.394531 C 3.75 137.410156 3.554688 137.488281 3.390625 137.632812 C 2.984375 137.988281 2.945312 138.609375 3.304688 139.015625 C 13.046875 150.085938 22.425781 155.480469 32.832031 155.996094 C 33.371094 156.019531 33.832031 155.605469 33.859375 155.066406 C 33.882812 154.527344 33.46875 154.066406 32.925781 154.039062 C 23.089844 153.554688 14.140625 148.371094 4.773438 137.722656 C 4.5625 137.480469 4.25 137.367188 3.953125 137.394531 " fill-opacity="1" fill-rule="nonzero"/><g clip-path="url(#dc96c04242)"><path fill="#2e3030" d="M 8.5625 137.984375 C 9 140.128906 7.613281 142.226562 5.464844 142.660156 C 3.316406 143.097656 1.222656 141.714844 0.785156 139.566406 C 0.347656 137.421875 1.730469 135.328125 3.878906 134.894531 C 6.027344 134.453125 8.121094 135.835938 8.5625 137.984375 " fill-opacity="1" fill-rule="nonzero"/></g><path fill="#ffc10c" d="M 217.605469 53.476562 C 217.527344 53.476562 217.445312 53.488281 217.355469 53.527344 L 173.335938 72.246094 C 173.117188 72.339844 173.023438 72.515625 172.988281 72.613281 C 172.953125 72.710938 172.910156 72.90625 173.019531 73.121094 C 179.253906 85.476562 193.414062 91.207031 205.261719 86.171875 C 217.109375 81.136719 222.792969 66.960938 218.210938 53.90625 C 218.128906 53.679688 217.957031 53.574219 217.863281 53.53125 C 217.808594 53.507812 217.714844 53.476562 217.605469 53.476562 Z M 196.28125 90.378906 C 186.070312 90.378906 176.007812 84.34375 170.886719 74.195312 C 170.511719 73.449219 170.460938 72.574219 170.746094 71.792969 C 171.035156 71.011719 171.636719 70.375 172.402344 70.050781 L 216.421875 51.335938 C 217.191406 51.007812 218.066406 51.015625 218.828125 51.351562 C 219.589844 51.6875 220.1875 52.332031 220.460938 53.117188 C 225.460938 67.355469 219.195312 82.839844 206.195312 88.363281 C 202.988281 89.730469 199.625 90.378906 196.28125 90.378906 " fill-opacity="1" fill-rule="nonzero"/><path fill="#ffc10c" d="M 212.070312 119.300781 L 224.433594 114.046875 C 224.671875 113.945312 224.691406 113.558594 224.464844 113.347656 C 222.796875 111.816406 221.027344 111.421875 219.453125 109.613281 C 214.515625 104.476562 211.324219 96.992188 209.652344 90.464844 C 208.359375 91.851562 207.210938 92.339844 205.316406 92.308594 C 208.863281 98.035156 212.042969 105.527344 212.328125 112.644531 C 212.539062 115.03125 211.59375 116.578125 211.542969 118.84375 C 211.539062 119.152344 211.832031 119.40625 212.070312 119.300781 " fill-opacity="1" fill-rule="nonzero"/><path fill="#ffe440" d="M 176.320312 64.972656 C 182.273438 78.949219 197.136719 91.640625 205.046875 92.769531 C 205.601562 92.851562 209.828125 91.066406 210.167969 90.59375 C 214.839844 84.117188 215.996094 64.613281 210.042969 50.636719 L 176.320312 64.972656 " fill-opacity="1" fill-rule="nonzero"/><path fill="#ffc10c" d="M 210.742188 52.371094 C 210.523438 51.800781 210.296875 51.234375 210.058594 50.671875 L 176.339844 65.011719 C 176.574219 65.570312 176.828125 66.125 177.089844 66.679688 L 210.742188 52.371094 " fill-opacity="1" fill-rule="nonzero"/><g clip-path="url(#56c3ab1fb7)"><path fill="#ffe440" d="M 210.519531 50.65625 L 176.003906 65.328125 C 175.230469 65.660156 174.332031 65.296875 174 64.523438 C 173.671875 63.746094 174.03125 62.847656 174.808594 62.519531 L 209.324219 47.84375 C 210.097656 47.511719 210.996094 47.875 211.328125 48.652344 C 211.65625 49.425781 211.296875 50.324219 210.519531 50.65625 " fill-opacity="1" fill-rule="nonzero"/></g><path fill="#ffffff" d="M 184.507812 58.640625 L 185.691406 63.410156 C 185.707031 63.472656 185.757812 63.523438 185.816406 63.535156 L 190.613281 64.636719 C 190.785156 64.675781 190.785156 64.917969 190.613281 64.960938 L 185.839844 66.144531 C 185.78125 66.160156 185.730469 66.207031 185.714844 66.269531 L 184.617188 71.058594 C 184.578125 71.230469 184.332031 71.234375 184.289062 71.0625 L 183.105469 66.292969 C 183.09375 66.230469 183.042969 66.183594 182.980469 66.167969 L 178.1875 65.070312 C 178.015625 65.027344 178.015625 64.785156 178.183594 64.742188 L 182.960938 63.558594 C 183.019531 63.542969 183.066406 63.496094 183.082031 63.433594 L 184.183594 58.644531 C 184.222656 58.472656 184.46875 58.46875 184.507812 58.640625 " fill-opacity="1" fill-rule="nonzero"/><path fill="#2e3030" d="M 211.253906 98.328125 C 211.453125 98.3125 211.660156 98.355469 211.84375 98.464844 C 212.308594 98.75 212.457031 99.347656 212.175781 99.8125 C 204.527344 112.417969 196.234375 119.375 186.082031 121.699219 C 185.554688 121.820312 185.027344 121.492188 184.910156 120.964844 C 184.789062 120.4375 185.117188 119.914062 185.644531 119.792969 C 195.246094 117.59375 203.144531 110.917969 210.5 98.796875 C 210.667969 98.519531 210.953125 98.355469 211.253906 98.328125 " fill-opacity="1" fill-rule="nonzero"/><path fill="#2e3030" d="M 206.816406 99.71875 C 206.761719 101.90625 208.496094 103.726562 210.683594 103.78125 C 212.878906 103.835938 214.695312 102.109375 214.753906 99.914062 C 214.808594 97.726562 213.078125 95.90625 210.886719 95.851562 C 208.695312 95.800781 206.875 97.527344 206.816406 99.71875 " fill-opacity="1" fill-rule="nonzero"/><path fill="#fa7d7d" d="M 83.855469 145.265625 C 84.304688 147.25 81.703125 149.539062 78.035156 150.371094 C 74.367188 151.203125 71.027344 150.265625 70.574219 148.277344 C 70.125 146.289062 72.730469 144 76.398438 143.167969 C 80.066406 142.335938 83.402344 143.277344 83.855469 145.265625 " fill-opacity="1" fill-rule="nonzero"/><path fill="#fa7d7d" d="M 154.609375 127.097656 C 155.320312 129.011719 153.160156 131.570312 149.792969 132.816406 C 146.421875 134.058594 143.117188 133.519531 142.40625 131.609375 C 141.699219 129.695312 143.859375 127.136719 147.226562 125.890625 C 150.597656 124.644531 153.902344 125.183594 154.609375 127.097656 " fill-opacity="1" fill-rule="nonzero"/><path fill="#1c1b1b" d="M 127.238281 145.378906 C 126.363281 149.253906 125.277344 152.273438 124.089844 154.597656 C 123.398438 155.949219 122.675781 157.070312 121.933594 157.984375 C 119.929688 160.507812 117.820312 161.59375 116.015625 162.003906 C 112.824219 162.726562 109.570312 161.601562 106.738281 159.457031 C 104.007812 157.429688 101.664062 154.476562 100.121094 151.367188 C 100.003906 151.15625 99.988281 150.90625 100.074219 150.679688 C 100.152344 150.46875 100.324219 150.304688 100.539062 150.253906 L 126.402344 144.390625 C 126.640625 144.335938 126.886719 144.441406 127.054688 144.640625 C 127.230469 144.839844 127.304688 145.125 127.238281 145.378906 " fill-opacity="1" fill-rule="nonzero"/><path fill="#f45d42" d="M 121.050781 159.003906 C 119.320312 160.8125 117.558594 161.65625 116.015625 162.003906 C 112.824219 162.726562 109.570312 161.601562 106.738281 159.457031 C 108.332031 156.835938 111.558594 155.59375 115.453125 155.808594 C 118.5 155.976562 121.050781 159.003906 121.050781 159.003906 " fill-opacity="1" fill-rule="nonzero"/><path fill="#181919" d="M 86.757812 140.8125 C 86.535156 140.796875 86.328125 140.65625 86.238281 140.433594 C 86.117188 140.128906 86.269531 139.78125 86.578125 139.660156 L 95.851562 136.039062 L 85.925781 135.589844 C 85.921875 135.589844 85.917969 135.589844 85.914062 135.589844 C 85.589844 135.570312 85.34375 135.292969 85.355469 134.96875 C 85.371094 134.640625 85.648438 134.382812 85.980469 134.398438 L 98.722656 134.972656 C 98.726562 134.972656 98.730469 134.972656 98.734375 134.972656 C 99.011719 134.988281 99.238281 135.195312 99.285156 135.46875 C 99.332031 135.746094 99.175781 136.019531 98.914062 136.121094 L 87.011719 140.773438 C 86.929688 140.804688 86.84375 140.816406 86.757812 140.8125 " fill-opacity="1" fill-rule="nonzero"/><path fill="#181919" d="M 124.023438 128.855469 C 123.746094 128.875 123.492188 128.695312 123.410156 128.429688 C 123.332031 128.160156 123.453125 127.867188 123.699219 127.734375 L 134.914062 121.664062 C 135.203125 121.507812 135.566406 121.613281 135.722656 121.902344 C 135.882812 122.191406 135.773438 122.554688 135.484375 122.714844 L 126.75 127.441406 L 136.675781 126.65625 C 136.679688 126.65625 136.679688 126.65625 136.679688 126.65625 C 137.007812 126.632812 137.292969 126.878906 137.316406 127.207031 C 137.34375 127.535156 137.097656 127.820312 136.769531 127.847656 L 124.03125 128.855469 C 124.03125 128.855469 124.027344 128.855469 124.023438 128.855469 " fill-opacity="1" fill-rule="nonzero"/></svg>