<svg xmlns="http://www.w3.org/2000/svg" xmlns:xlink="http://www.w3.org/1999/xlink" width="324" zoomAndPan="magnify" viewBox="0 0 242.87999 183.750001" height="245" preserveAspectRatio="xMidYMid meet" version="1.0"><defs><clipPath id="5aeb95269b"><path d="M 127 146 L 143 146 L 143 183.105469 L 127 183.105469 Z M 127 146 " clip-rule="nonzero"/></clipPath><clipPath id="d3104d76de"><path d="M 233 79 L 242.382812 79 L 242.382812 89 L 233 89 Z M 233 79 " clip-rule="nonzero"/></clipPath><clipPath id="d005c57394"><path d="M 0.597656 87.195312 L 9.339844 87.195312 L 9.339844 92 L 0.597656 92 Z M 0.597656 87.195312 " clip-rule="nonzero"/></clipPath><clipPath id="724975e7b9"><path d="M 127 146 L 143 146 L 143 183.105469 L 127 183.105469 Z M 127 146 " clip-rule="nonzero"/></clipPath><clipPath id="ae1cf9f6fa"><path d="M 233 79 L 242.382812 79 L 242.382812 89 L 233 89 Z M 233 79 " clip-rule="nonzero"/></clipPath><clipPath id="03d0bcde76"><path d="M 0.597656 87.195312 L 9.339844 87.195312 L 9.339844 92 L 0.597656 92 Z M 0.597656 87.195312 " clip-rule="nonzero"/></clipPath></defs><g clip-path="url(#5aeb95269b)"><path fill="#2e3030" d="M 135.179688 183.105469 C 137.199219 183.105469 139.59375 182.378906 142.410156 180.921875 C 142.925781 180.65625 143.125 180.023438 142.859375 179.507812 C 142.59375 178.992188 141.960938 178.792969 141.445312 179.058594 C 137.378906 181.160156 134.378906 181.550781 132.53125 180.210938 C 127.425781 176.519531 130.097656 159.765625 132.054688 147.539062 C 132.144531 146.96875 131.753906 146.425781 131.183594 146.335938 C 130.609375 146.246094 130.074219 146.632812 129.980469 147.207031 C 127.714844 161.390625 125.148438 177.460938 131.304688 181.914062 C 132.398438 182.707031 133.6875 183.105469 135.179688 183.105469 " fill-opacity="1" fill-rule="nonzero"/></g><path fill="#ffc6c6" d="M 28 84.324219 C 28.796875 74.257812 36.296875 66.601562 45.53125 64.496094 C 42.746094 58.355469 42.566406 51.148438 44.949219 44.8125 C 48.488281 35.398438 58.53125 29.898438 68.449219 30.640625 C 69.632812 30.730469 70.789062 30.949219 71.949219 31.191406 L 75.574219 31.96875 C 77.753906 27.050781 80.917969 22.773438 84.929688 19.113281 C 87.105469 17.128906 89.753906 15.410156 92.503906 14.332031 C 98.308594 12.0625 100.519531 11.875 106.746094 11.71875 C 112.394531 11.582031 119.074219 14.5 123.621094 17.644531 C 125.65625 19.054688 127.488281 20.660156 129.148438 22.421875 C 134.320312 19.339844 139.96875 16.921875 145.691406 15.816406 C 148.652344 15.242188 151.863281 14.894531 154.84375 15.421875 C 161.535156 16.605469 161.078125 16.640625 167.019531 19.703125 C 169.097656 20.773438 170.710938 22.660156 172.339844 24.296875 C 175.425781 27.398438 177.910156 33.109375 178.519531 37.375 C 178.554688 37.609375 178.585938 37.847656 178.617188 38.085938 C 178.71875 38.089844 178.820312 38.097656 178.925781 38.105469 C 182.101562 37.96875 183.957031 38.789062 187.003906 39.597656 C 191.699219 40.839844 195.460938 44.136719 198.808594 47.453125 C 204.210938 52.800781 206.390625 62.164062 205.359375 69.523438 C 205.171875 71.804688 204.660156 73.972656 203.832031 76.019531 C 212.511719 79.574219 218.582031 88.613281 217.808594 98.382812 C 217.007812 108.550781 209.359375 116.257812 199.992188 118.269531 C 200.03125 119.140625 200.023438 120.019531 199.953125 120.902344 C 198.976562 133.292969 188.15625 142.058594 176.128906 141.28125 C 171.78125 141 168.714844 139.441406 165.390625 136.914062 C 164.933594 137.800781 164.417969 138.664062 163.839844 139.484375 C 162.554688 140.886719 161.269531 142.285156 159.984375 143.6875 C 156.957031 146.214844 153.515625 147.851562 149.652344 148.59375 C 146.792969 149.34375 143.664062 149.445312 140.730469 149.089844 C 135.148438 148.417969 131.648438 147.011719 126.835938 144.136719 C 123.941406 142.410156 121.558594 139.605469 119.890625 136.46875 C 119.207031 137.242188 118.476562 137.980469 117.695312 138.683594 C 115.664062 140.503906 113.289062 141.949219 110.890625 143.21875 C 106.574219 145.507812 102.25 145.75 97.503906 145.753906 C 93.019531 145.757812 88.429688 143.457031 84.71875 141.230469 C 82.34375 139.808594 80.15625 137.648438 78.511719 135.363281 C 77.464844 133.777344 76.414062 132.191406 75.367188 130.605469 C 75.164062 130.191406 74.976562 129.769531 74.804688 129.351562 C 70.582031 132.355469 65.320312 133.960938 59.878906 133.609375 C 47.847656 132.832031 37.652344 121.460938 38.609375 109.335938 C 38.71875 107.96875 38.957031 106.648438 39.300781 105.375 C 32.082031 101.207031 27.3125 93.054688 28 84.324219 " fill-opacity="1" fill-rule="nonzero"/><path fill="#ffa0a2" d="M 176.097656 36.074219 C 173.351562 27.414062 165.78125 20.988281 157.378906 18.09375 C 147.433594 14.664062 136.648438 16.863281 128.5 23.386719 C 126.542969 24.949219 123.964844 22.03125 125.929688 20.460938 C 135.140625 13.089844 147 10.695312 158.277344 14.289062 C 168.230469 17.457031 176.726562 25.246094 179.910156 35.28125 C 180.671875 37.679688 176.847656 38.4375 176.097656 36.074219 " fill-opacity="1" fill-rule="nonzero"/><path fill="#ffa0a2" d="M 125.234375 22.070312 C 119.261719 13.417969 108.066406 11.441406 98.332031 13.566406 C 87.679688 15.890625 78.394531 23.488281 76.03125 34.402344 C 75.5 36.851562 71.824219 35.554688 72.351562 33.128906 C 77.117188 11.136719 109.132812 0.359375 125.589844 16.410156 C 126.550781 17.347656 127.398438 18.394531 128.160156 19.5 C 129.570312 21.542969 126.660156 24.132812 125.234375 22.070312 " fill-opacity="1" fill-rule="nonzero"/><path fill="#ffa0a2" d="M 174.285156 34.9375 C 184.875 33.859375 195.425781 38.425781 202.15625 46.640625 C 205.382812 50.578125 207.578125 55.394531 208.207031 60.453125 C 208.902344 66.027344 207.535156 71.472656 204.867188 76.351562 C 203.660156 78.554688 200.441406 76.363281 201.636719 74.175781 C 206.214844 65.816406 204.953125 56.191406 198.980469 48.902344 C 193.296875 41.96875 184.042969 37.839844 175.074219 38.753906 C 172.597656 39.003906 171.792969 35.191406 174.285156 34.9375 " fill-opacity="1" fill-rule="nonzero"/><path fill="#ffa0a2" d="M 203.890625 73.421875 C 213.695312 78.210938 221.890625 87.28125 220.886719 98.847656 C 219.910156 110.0625 210.429688 117.671875 200.203125 120.492188 C 197.777344 121.164062 197.007812 117.34375 199.410156 116.679688 C 208.035156 114.300781 216.035156 108.011719 217 98.59375 C 217.996094 88.925781 210.769531 81.085938 202.613281 77.105469 C 200.390625 76.019531 201.632812 72.324219 203.890625 73.421875 " fill-opacity="1" fill-rule="nonzero"/><path fill="#ffa0a2" d="M 74.308594 31.785156 C 65.773438 30.054688 56.714844 32.597656 51.144531 39.488281 C 45.980469 45.878906 44.921875 54.664062 48.25 62.148438 C 49.269531 64.441406 45.789062 66.1875 44.769531 63.894531 C 40.820312 55.007812 41.996094 44.640625 48.140625 37.039062 C 54.816406 28.773438 65.425781 26.046875 75.582031 28.105469 C 76.625 28.316406 77.097656 29.683594 76.785156 30.582031 C 76.402344 31.683594 75.347656 31.996094 74.308594 31.785156 " fill-opacity="1" fill-rule="nonzero"/><path fill="#ffa0a2" d="M 46.269531 65.121094 C 37.40625 67.292969 29.753906 73.671875 28.425781 83.0625 C 27.257812 91.304688 31.53125 99.457031 38.984375 103.179688 C 39.933594 103.652344 40.566406 104.554688 40.1875 105.65625 C 39.875 106.5625 38.660156 107.332031 37.710938 106.859375 C 28.671875 102.347656 23.25 92.960938 24.539062 82.8125 C 25.964844 71.644531 34.941406 63.890625 45.476562 61.304688 C 47.921875 60.707031 48.695312 64.527344 46.269531 65.121094 " fill-opacity="1" fill-rule="nonzero"/><path fill="#ffa0a2" d="M 200.363281 112.433594 C 202.042969 117.628906 202.316406 123.222656 200.515625 128.425781 C 198.917969 133.03125 195.625 136.773438 191.523438 139.316406 C 181.617188 145.464844 168.949219 142.304688 160.058594 135.898438 C 158.027344 134.433594 160.191406 131.199219 162.234375 132.671875 C 170.105469 138.339844 180.605469 141.097656 189.476562 136.015625 C 192.902344 134.054688 195.484375 130.832031 196.835938 127.148438 C 198.496094 122.632812 198.003906 117.722656 196.550781 113.222656 C 195.777344 110.832031 199.601562 110.074219 200.363281 112.433594 " fill-opacity="1" fill-rule="nonzero"/><path fill="#ffa0a2" d="M 166.789062 139.246094 C 162.042969 146.757812 153.613281 151.144531 144.84375 151.660156 C 134.21875 152.289062 124.398438 147.148438 117.5 139.28125 C 115.84375 137.390625 118.765625 134.820312 120.421875 136.710938 C 126.539062 143.6875 134.929688 148.113281 144.324219 147.816406 C 151.992188 147.574219 159.453125 143.570312 163.5625 137.066406 C 164.90625 134.945312 168.132812 137.121094 166.789062 139.246094 " fill-opacity="1" fill-rule="nonzero"/><path fill="#ffa0a2" d="M 119.941406 139.542969 C 111.851562 146.75 101.046875 150.269531 90.441406 147.15625 C 79.5 143.949219 72.1875 134.261719 68.671875 123.847656 C 68.328125 122.84375 69.238281 121.742188 70.183594 121.546875 C 71.316406 121.3125 72.144531 122.054688 72.484375 123.058594 C 75.609375 132.308594 82.148438 140.53125 91.714844 143.476562 C 100.902344 146.308594 110.429688 142.804688 117.375 136.621094 C 119.25 134.949219 121.816406 137.875 119.941406 139.542969 " fill-opacity="1" fill-rule="nonzero"/><path fill="#ffa0a2" d="M 75.164062 132.96875 C 64.03125 136.941406 51.503906 135.53125 43.160156 126.601562 C 35.699219 118.613281 34.761719 106.738281 40.402344 97.5 C 41.710938 95.355469 44.933594 97.539062 43.628906 99.679688 C 38.898438 107.429688 39.878906 116.980469 45.84375 123.765625 C 52.738281 131.601562 63.980469 132.855469 73.417969 129.488281 C 75.757812 128.652344 77.523438 132.125 75.164062 132.96875 " fill-opacity="1" fill-rule="nonzero"/><path fill="#ffa0a2" d="M 129.726562 22.378906 C 127.847656 24.867188 126.578125 27.386719 125.957031 30.460938 C 125.746094 31.503906 124.378906 31.976562 123.480469 31.664062 C 122.378906 31.285156 122.070312 30.226562 122.28125 29.1875 C 122.960938 25.824219 124.441406 22.921875 126.496094 20.199219 C 128.003906 18.207031 131.242188 20.367188 129.726562 22.378906 " fill-opacity="1" fill-rule="nonzero"/><path fill="#ffa0a2" d="M 166.433594 66.824219 C 165.28125 60.347656 161.035156 55.078125 154.527344 53.507812 C 148.585938 52.078125 142.628906 54.96875 139.492188 60.050781 C 138.433594 61.761719 135.855469 60.015625 136.910156 58.308594 C 140.832031 51.953125 147.992188 49.035156 155.246094 50.5 C 162.894531 52.039062 168.160156 58.761719 169.484375 66.191406 C 169.835938 68.167969 166.785156 68.800781 166.433594 66.824219 " fill-opacity="1" fill-rule="nonzero"/><path fill="#ffa0a2" d="M 110.371094 56.714844 C 107.425781 50.976562 101.691406 46.847656 95.039062 47.839844 C 89.066406 48.730469 85.304688 53.667969 85.632812 59.605469 C 85.746094 61.605469 82.636719 61.382812 82.527344 59.402344 C 82.128906 52.160156 87.054688 46.195312 94.109375 44.839844 C 102.199219 43.285156 109.5625 48.320312 113.152344 55.320312 C 114.074219 57.109375 111.285156 58.5 110.371094 56.714844 " fill-opacity="1" fill-rule="nonzero"/><path fill="#ffa0a2" d="M 177.269531 112.117188 C 173.902344 106.183594 172.292969 98.863281 175.855469 92.644531 C 179.375 86.5 187.035156 84.800781 193.582031 85.371094 C 195.578125 85.546875 195.382812 88.65625 193.382812 88.480469 C 187.863281 88 181.804688 89.152344 178.605469 94.113281 C 175.296875 99.234375 177.300781 105.871094 180.054688 110.722656 C 181.050781 112.472656 178.257812 113.855469 177.269531 112.117188 " fill-opacity="1" fill-rule="nonzero"/><path fill="#ffa0a2" d="M 191.273438 88.3125 C 186.230469 86.816406 180.792969 79.832031 182.992188 74.4375 C 183.746094 72.589844 186.695312 73.59375 185.933594 75.460938 C 184.375 79.285156 188.832031 84.34375 192.292969 85.371094 C 194.21875 85.941406 193.195312 88.882812 191.273438 88.3125 " fill-opacity="1" fill-rule="nonzero"/><path fill="#ffa0a2" d="M 104.796875 130.144531 C 104.132812 125.972656 100.144531 124.058594 96.453125 123.039062 C 94.519531 122.507812 95.542969 119.5625 97.472656 120.097656 C 102.210938 121.40625 107.007812 124.257812 107.847656 129.511719 C 108.164062 131.492188 105.113281 132.125 104.796875 130.144531 " fill-opacity="1" fill-rule="nonzero"/><path fill="#ffa0a2" d="M 134.410156 131.734375 C 129.5 121.671875 112.804688 119.917969 107.792969 130.875 C 106.96875 132.683594 104.015625 131.683594 104.851562 129.855469 C 110.941406 116.539062 131.007812 117.664062 137.195312 130.335938 C 138.078125 132.144531 135.292969 133.539062 134.410156 131.734375 " fill-opacity="1" fill-rule="nonzero"/><path fill="#ffa0a2" d="M 55.179688 80.675781 C 59.867188 84.757812 60.191406 90.414062 57.480469 95.765625 C 56.574219 97.554688 54 95.796875 54.898438 94.023438 C 56.765625 90.335938 56.71875 86.117188 53.4375 83.257812 C 51.941406 81.960938 53.664062 79.355469 55.179688 80.675781 " fill-opacity="1" fill-rule="nonzero"/><path fill="#ffa0a2" d="M 64.289062 63.273438 C 69.835938 66.78125 73.429688 73.332031 70.125 79.621094 C 68.777344 82.191406 66.175781 83.871094 63.433594 84.585938 C 59.6875 85.566406 55.765625 84.386719 52.421875 82.707031 C 50.632812 81.804688 52.390625 79.230469 54.164062 80.125 C 58.53125 82.320312 64.539062 82.84375 67.414062 78.109375 C 70.253906 73.425781 66.441406 68.320312 62.546875 65.859375 C 60.847656 64.785156 62.589844 62.203125 64.289062 63.273438 " fill-opacity="1" fill-rule="nonzero"/><path fill="#ffe3e4" d="M 168.625 32.164062 C 164.894531 25.765625 157.785156 21.8125 150.410156 21.820312 C 148.703125 21.820312 148.882812 19.175781 150.582031 19.175781 C 158.910156 19.167969 166.808594 23.804688 170.992188 30.976562 C 171.855469 32.457031 169.480469 33.628906 168.625 32.164062 " fill-opacity="1" fill-rule="nonzero"/><path fill="#ffe3e4" d="M 161.515625 65.285156 C 160.292969 63.148438 158.949219 61.023438 156.941406 59.539062 C 154.691406 57.878906 151.832031 57.539062 149.121094 57.484375 C 147.414062 57.449219 147.589844 54.808594 149.292969 54.84375 C 152.414062 54.90625 155.488281 55.433594 158.148438 57.152344 C 160.703125 58.804688 162.40625 61.511719 163.882812 64.101562 C 164.730469 65.589844 162.355469 66.765625 161.515625 65.285156 " fill-opacity="1" fill-rule="nonzero"/><path fill="#ffe3e4" d="M 198.941406 58.160156 C 195.769531 50.445312 188.703125 45.519531 180.820312 43.425781 C 179.171875 42.988281 180.042969 40.488281 181.683594 40.925781 C 190.167969 43.175781 197.898438 48.683594 201.304688 56.976562 C 201.953125 58.550781 199.585938 59.742188 198.941406 58.160156 " fill-opacity="1" fill-rule="nonzero"/><path fill="#ffe3e4" d="M 119.117188 21.628906 C 115.945312 19.035156 112.234375 16.816406 107.984375 17.203125 C 106.300781 17.355469 105.75 14.761719 107.445312 14.609375 C 112.464844 14.152344 116.792969 16.324219 120.59375 19.433594 C 121.90625 20.503906 120.441406 22.710938 119.117188 21.628906 " fill-opacity="1" fill-rule="nonzero"/><path fill="#ffe3e4" d="M 105.320312 56.890625 C 102.785156 53.386719 99.394531 51.425781 94.972656 52.230469 C 93.292969 52.539062 92.757812 49.941406 94.4375 49.636719 C 99.730469 48.671875 104.214844 50.863281 107.308594 55.140625 C 108.300781 56.511719 106.320312 58.273438 105.320312 56.890625 " fill-opacity="1" fill-rule="nonzero"/><path fill="#ffe3e4" d="M 190.054688 92.484375 C 187.566406 92.695312 185.101562 93.214844 183.269531 95.027344 C 181.710938 96.566406 181.292969 99 181.109375 101.078125 C 180.957031 102.777344 178.316406 102.609375 178.46875 100.90625 C 178.703125 98.265625 179.320312 95.585938 181.085938 93.523438 C 183.191406 91.054688 186.394531 90.152344 189.519531 89.890625 C 191.199219 89.75 191.753906 92.34375 190.054688 92.484375 " fill-opacity="1" fill-rule="nonzero"/><path fill="#2e3030" d="M 75.042969 165.703125 C 81.988281 165.703125 91.140625 154.894531 100.011719 144.417969 C 100.386719 143.972656 100.332031 143.3125 99.890625 142.9375 C 99.449219 142.5625 98.785156 142.617188 98.410156 143.058594 C 89.746094 153.296875 79.921875 164.894531 74.09375 163.496094 C 71.882812 162.964844 70.214844 160.382812 69.136719 155.816406 C 69.003906 155.25 68.4375 154.902344 67.875 155.035156 C 67.3125 155.167969 66.960938 155.734375 67.09375 156.296875 C 68.386719 161.773438 70.515625 164.796875 73.601562 165.539062 C 74.070312 165.648438 74.550781 165.703125 75.042969 165.703125 " fill-opacity="1" fill-rule="nonzero"/><path fill="#2e3030" d="M 205.359375 101.015625 C 205.453125 101.015625 205.546875 101.003906 205.644531 100.976562 L 206.746094 100.640625 C 219.121094 96.90625 222.445312 95.902344 234.574219 88.144531 C 235.03125 87.851562 235.164062 87.242188 234.875 86.785156 C 234.578125 86.324219 233.972656 86.191406 233.515625 86.484375 C 221.617188 94.09375 218.347656 95.082031 206.179688 98.757812 L 205.074219 99.089844 C 204.554688 99.246094 204.261719 99.796875 204.417969 100.316406 C 204.546875 100.742188 204.9375 101.015625 205.359375 101.015625 " fill-opacity="1" fill-rule="nonzero"/><path fill="#2e3030" d="M 234.484375 87.867188 C 234.703125 87.867188 234.925781 87.792969 235.105469 87.640625 L 240.527344 83.210938 C 240.945312 82.867188 241.007812 82.246094 240.667969 81.824219 C 240.320312 81.40625 239.703125 81.34375 239.28125 81.6875 L 233.859375 86.117188 C 233.441406 86.464844 233.378906 87.082031 233.722656 87.503906 C 233.917969 87.742188 234.199219 87.867188 234.484375 87.867188 " fill-opacity="1" fill-rule="nonzero"/><g clip-path="url(#d3104d76de)"><path fill="#2e3030" d="M 241.207031 88.957031 C 241.691406 88.957031 242.117188 88.59375 242.179688 88.097656 C 242.25 87.558594 241.867188 87.066406 241.328125 86.996094 L 235.234375 86.222656 L 235.46875 80.773438 C 235.492188 80.230469 235.074219 79.769531 234.53125 79.746094 C 233.996094 79.722656 233.527344 80.144531 233.503906 80.6875 L 233.191406 87.945312 L 241.078125 88.949219 C 241.121094 88.957031 241.164062 88.957031 241.207031 88.957031 " fill-opacity="1" fill-rule="nonzero"/></g><path fill="#2e3030" d="M 30.722656 95.410156 C 33.035156 95.410156 35.621094 95.34375 38.769531 95.269531 L 39.910156 95.242188 C 40.453125 95.226562 40.882812 94.777344 40.867188 94.234375 C 40.855469 93.6875 40.394531 93.246094 39.859375 93.273438 L 38.71875 93.300781 C 26.007812 93.613281 22.589844 93.695312 8.910156 90.179688 C 8.386719 90.046875 7.847656 90.363281 7.710938 90.886719 C 7.578125 91.414062 7.894531 91.949219 8.421875 92.085938 C 18.972656 94.796875 23.53125 95.410156 30.722656 95.410156 " fill-opacity="1" fill-rule="nonzero"/><g clip-path="url(#d005c57394)"><path fill="#2e3030" d="M 8.113281 91.84375 C 8.507812 91.84375 8.878906 91.605469 9.03125 91.214844 C 9.226562 90.707031 8.972656 90.136719 8.464844 89.941406 L 1.933594 87.425781 C 1.425781 87.230469 0.859375 87.480469 0.664062 87.988281 C 0.46875 88.496094 0.71875 89.066406 1.226562 89.261719 L 7.757812 91.78125 C 7.875 91.824219 7.996094 91.84375 8.113281 91.84375 " fill-opacity="1" fill-rule="nonzero"/></g><path fill="#2e3030" d="M 2.070312 94.980469 C 2.210938 94.980469 2.355469 94.949219 2.492188 94.882812 L 9.671875 91.464844 L 7.109375 84.667969 C 6.917969 84.160156 6.351562 83.902344 5.84375 84.09375 C 5.332031 84.285156 5.078125 84.851562 5.269531 85.363281 L 7.191406 90.46875 L 1.644531 93.105469 C 1.15625 93.339844 0.949219 93.929688 1.183594 94.417969 C 1.347656 94.773438 1.703125 94.980469 2.070312 94.980469 " fill-opacity="1" fill-rule="nonzero"/><path fill="#f2f4f4" d="M 131.695312 88.308594 C 131.160156 93.589844 135.007812 98.304688 140.289062 98.84375 C 145.566406 99.378906 150.28125 95.53125 150.816406 90.25 C 151.351562 84.964844 147.507812 80.246094 142.230469 79.714844 C 136.945312 79.179688 132.230469 83.027344 131.695312 88.308594 " fill-opacity="1" fill-rule="nonzero"/><path fill="#181919" d="M 133.652344 89.957031 C 133.246094 93.980469 136.175781 97.570312 140.195312 97.980469 C 144.214844 98.390625 147.804688 95.460938 148.214844 91.4375 C 148.621094 87.414062 145.691406 83.820312 141.671875 83.414062 C 137.652344 83.003906 134.0625 85.933594 133.652344 89.957031 " fill-opacity="1" fill-rule="nonzero"/><path fill="#f2f4f4" d="M 143.445312 87.546875 C 143.320312 88.800781 144.226562 89.910156 145.476562 90.042969 C 146.726562 90.167969 147.839844 89.257812 147.964844 88.007812 C 148.09375 86.757812 147.183594 85.640625 145.941406 85.515625 C 144.6875 85.386719 143.574219 86.296875 143.445312 87.546875 " fill-opacity="1" fill-rule="nonzero"/><path fill="#f2f4f4" d="M 92.40625 85.597656 C 91.875 90.878906 95.71875 95.597656 100.996094 96.136719 C 106.277344 96.667969 110.992188 92.824219 111.527344 87.539062 C 112.0625 82.257812 108.21875 77.539062 102.933594 77.003906 C 97.65625 76.464844 92.945312 80.316406 92.40625 85.597656 " fill-opacity="1" fill-rule="nonzero"/><path fill="#181919" d="M 94.363281 87.25 C 93.953125 91.269531 96.886719 94.863281 100.90625 95.273438 C 104.925781 95.679688 108.519531 92.75 108.925781 88.726562 C 109.332031 84.703125 106.40625 81.113281 102.382812 80.707031 C 98.363281 80.300781 94.769531 83.226562 94.363281 87.25 " fill-opacity="1" fill-rule="nonzero"/><path fill="#f2f4f4" d="M 104.152344 84.839844 C 104.027344 86.089844 104.9375 87.207031 106.1875 87.332031 C 107.4375 87.457031 108.550781 86.546875 108.675781 85.296875 C 108.804688 84.050781 107.894531 82.933594 106.648438 82.804688 C 105.398438 82.679688 104.28125 83.589844 104.152344 84.839844 " fill-opacity="1" fill-rule="nonzero"/><path fill="#fc7a8c" d="M 147.597656 104.976562 C 147.6875 107.78125 151.984375 110.007812 157.199219 109.960938 C 162.410156 109.914062 166.5625 107.605469 166.472656 104.808594 C 166.386719 102.011719 162.085938 99.78125 156.875 99.828125 C 151.664062 99.875 147.511719 102.179688 147.597656 104.976562 " fill-opacity="1" fill-rule="nonzero"/><path fill="#fc7a8c" d="M 75.054688 95.519531 C 74.519531 98.460938 77.832031 101.699219 82.449219 102.75 C 87.066406 103.804688 91.242188 102.277344 91.777344 99.335938 C 92.3125 96.402344 89 93.164062 84.382812 92.109375 C 79.765625 91.054688 75.589844 92.582031 75.054688 95.519531 " fill-opacity="1" fill-rule="nonzero"/><path fill="#2e3030" d="M 121.117188 115.28125 C 125.5 115.28125 129.945312 113.75 134.113281 110.777344 C 134.515625 110.492188 134.609375 109.9375 134.324219 109.539062 C 134.039062 109.136719 133.484375 109.042969 133.082031 109.328125 C 122.609375 116.792969 113.074219 113.070312 108.09375 107.609375 C 107.761719 107.246094 107.199219 107.222656 106.835938 107.550781 C 106.472656 107.882812 106.445312 108.449219 106.777344 108.808594 C 109.933594 112.265625 114.132812 114.507812 118.609375 115.113281 C 119.441406 115.226562 120.277344 115.28125 121.117188 115.28125 " fill-opacity="1" fill-rule="nonzero"/><path fill="#f44f2f" d="M 121.636719 113.707031 C 125.265625 113.234375 129.289062 111.992188 132.21875 109.882812 C 132.21875 109.882812 131.605469 101.722656 125.332031 102.8125 C 117.15625 104.230469 121.136719 113.769531 121.636719 113.707031 " fill-opacity="1" fill-rule="nonzero"/><path fill="#d6270f" d="M 127.117188 112.261719 C 127.371094 112.261719 127.582031 112.0625 127.59375 111.8125 C 127.695312 109.726562 127.277344 107.9375 126.089844 105.429688 C 125.980469 105.191406 125.695312 105.09375 125.460938 105.203125 C 125.222656 105.316406 125.121094 105.597656 125.234375 105.835938 C 126.359375 108.21875 126.742188 109.824219 126.644531 111.761719 C 126.632812 112.023438 126.835938 112.25 127.09375 112.261719 C 127.105469 112.261719 127.113281 112.261719 127.117188 112.261719 " fill-opacity="1" fill-rule="nonzero"/><g clip-path="url(#724975e7b9)"><path fill="#2e3030" d="M 135.179688 183.105469 C 137.199219 183.105469 139.59375 182.378906 142.410156 180.921875 C 142.925781 180.65625 143.125 180.023438 142.859375 179.507812 C 142.59375 178.992188 141.960938 178.792969 141.445312 179.058594 C 137.378906 181.160156 134.378906 181.550781 132.53125 180.210938 C 127.425781 176.519531 130.097656 159.765625 132.054688 147.539062 C 132.144531 146.96875 131.753906 146.425781 131.183594 146.335938 C 130.609375 146.246094 130.074219 146.632812 129.980469 147.207031 C 127.714844 161.390625 125.148438 177.460938 131.304688 181.914062 C 132.398438 182.707031 133.6875 183.105469 135.179688 183.105469 " fill-opacity="1" fill-rule="nonzero"/></g><path fill="#ffc6c6" d="M 28 84.324219 C 28.796875 74.257812 36.296875 66.601562 45.53125 64.496094 C 42.746094 58.355469 42.566406 51.148438 44.949219 44.8125 C 48.488281 35.398438 58.53125 29.898438 68.449219 30.640625 C 69.632812 30.730469 70.789062 30.949219 71.949219 31.191406 L 75.574219 31.96875 C 77.753906 27.050781 80.917969 22.773438 84.929688 19.113281 C 87.105469 17.128906 89.753906 15.410156 92.503906 14.332031 C 98.308594 12.0625 100.519531 11.875 106.746094 11.71875 C 112.394531 11.582031 119.074219 14.5 123.621094 17.644531 C 125.65625 19.054688 127.488281 20.660156 129.148438 22.421875 C 134.320312 19.339844 139.96875 16.921875 145.691406 15.816406 C 148.652344 15.242188 151.863281 14.894531 154.84375 15.421875 C 161.535156 16.605469 161.078125 16.640625 167.019531 19.703125 C 169.097656 20.773438 170.710938 22.660156 172.339844 24.296875 C 175.425781 27.398438 177.910156 33.109375 178.519531 37.375 C 178.554688 37.609375 178.585938 37.847656 178.617188 38.085938 C 178.71875 38.089844 178.820312 38.097656 178.925781 38.105469 C 182.101562 37.96875 183.957031 38.789062 187.003906 39.597656 C 191.699219 40.839844 195.460938 44.136719 198.808594 47.453125 C 204.210938 52.800781 206.390625 62.164062 205.359375 69.523438 C 205.171875 71.804688 204.660156 73.972656 203.832031 76.019531 C 212.511719 79.574219 218.582031 88.613281 217.808594 98.382812 C 217.007812 108.550781 209.359375 116.257812 199.992188 118.269531 C 200.03125 119.140625 200.023438 120.019531 199.953125 120.902344 C 198.976562 133.292969 188.15625 142.058594 176.128906 141.28125 C 171.78125 141 168.714844 139.441406 165.390625 136.914062 C 164.933594 137.800781 164.417969 138.664062 163.839844 139.484375 C 162.554688 140.886719 161.269531 142.285156 159.984375 143.6875 C 156.957031 146.214844 153.515625 147.851562 149.652344 148.59375 C 146.792969 149.34375 143.664062 149.445312 140.730469 149.089844 C 135.148438 148.417969 131.648438 147.011719 126.835938 144.136719 C 123.941406 142.410156 121.558594 139.605469 119.890625 136.46875 C 119.207031 137.242188 118.476562 137.980469 117.695312 138.683594 C 115.664062 140.503906 113.289062 141.949219 110.890625 143.21875 C 106.574219 145.507812 102.25 145.75 97.503906 145.753906 C 93.019531 145.757812 88.429688 143.457031 84.71875 141.230469 C 82.34375 139.808594 80.15625 137.648438 78.511719 135.363281 C 77.464844 133.777344 76.414062 132.191406 75.367188 130.605469 C 75.164062 130.191406 74.976562 129.769531 74.804688 129.351562 C 70.582031 132.355469 65.320312 133.960938 59.878906 133.609375 C 47.847656 132.832031 37.652344 121.460938 38.609375 109.335938 C 38.71875 107.96875 38.957031 106.648438 39.300781 105.375 C 32.082031 101.207031 27.3125 93.054688 28 84.324219 " fill-opacity="1" fill-rule="nonzero"/><path fill="#ffa0a2" d="M 176.097656 36.074219 C 173.351562 27.414062 165.78125 20.988281 157.378906 18.09375 C 147.433594 14.664062 136.648438 16.863281 128.5 23.386719 C 126.542969 24.949219 123.964844 22.03125 125.929688 20.460938 C 135.140625 13.089844 147 10.695312 158.277344 14.289062 C 168.230469 17.457031 176.726562 25.246094 179.910156 35.28125 C 180.671875 37.679688 176.847656 38.4375 176.097656 36.074219 " fill-opacity="1" fill-rule="nonzero"/><path fill="#ffa0a2" d="M 125.234375 22.070312 C 119.261719 13.417969 108.066406 11.441406 98.332031 13.566406 C 87.679688 15.890625 78.394531 23.488281 76.03125 34.402344 C 75.5 36.851562 71.824219 35.554688 72.351562 33.128906 C 77.117188 11.136719 109.132812 0.359375 125.589844 16.410156 C 126.550781 17.347656 127.398438 18.394531 128.160156 19.5 C 129.570312 21.542969 126.660156 24.132812 125.234375 22.070312 " fill-opacity="1" fill-rule="nonzero"/><path fill="#ffa0a2" d="M 174.285156 34.9375 C 184.875 33.859375 195.425781 38.425781 202.15625 46.640625 C 205.382812 50.578125 207.578125 55.394531 208.207031 60.453125 C 208.902344 66.027344 207.535156 71.472656 204.867188 76.351562 C 203.660156 78.554688 200.441406 76.363281 201.636719 74.175781 C 206.214844 65.816406 204.953125 56.191406 198.980469 48.902344 C 193.296875 41.96875 184.042969 37.839844 175.074219 38.753906 C 172.597656 39.003906 171.792969 35.191406 174.285156 34.9375 " fill-opacity="1" fill-rule="nonzero"/><path fill="#ffa0a2" d="M 203.890625 73.421875 C 213.695312 78.210938 221.890625 87.28125 220.886719 98.847656 C 219.910156 110.0625 210.429688 117.671875 200.203125 120.492188 C 197.777344 121.164062 197.007812 117.34375 199.410156 116.679688 C 208.035156 114.300781 216.035156 108.011719 217 98.59375 C 217.996094 88.925781 210.769531 81.085938 202.613281 77.105469 C 200.390625 76.019531 201.632812 72.324219 203.890625 73.421875 " fill-opacity="1" fill-rule="nonzero"/><path fill="#ffa0a2" d="M 74.308594 31.785156 C 65.773438 30.054688 56.714844 32.597656 51.144531 39.488281 C 45.980469 45.878906 44.921875 54.664062 48.25 62.148438 C 49.269531 64.441406 45.789062 66.1875 44.769531 63.894531 C 40.820312 55.007812 41.996094 44.640625 48.140625 37.039062 C 54.816406 28.773438 65.425781 26.046875 75.582031 28.105469 C 76.625 28.316406 77.097656 29.683594 76.785156 30.582031 C 76.402344 31.683594 75.347656 31.996094 74.308594 31.785156 " fill-opacity="1" fill-rule="nonzero"/><path fill="#ffa0a2" d="M 46.269531 65.121094 C 37.40625 67.292969 29.753906 73.671875 28.425781 83.0625 C 27.257812 91.304688 31.53125 99.457031 38.984375 103.179688 C 39.933594 103.652344 40.566406 104.554688 40.1875 105.65625 C 39.875 106.5625 38.660156 107.332031 37.710938 106.859375 C 28.671875 102.347656 23.25 92.960938 24.539062 82.8125 C 25.964844 71.644531 34.941406 63.890625 45.476562 61.304688 C 47.921875 60.707031 48.695312 64.527344 46.269531 65.121094 " fill-opacity="1" fill-rule="nonzero"/><path fill="#ffa0a2" d="M 200.363281 112.433594 C 202.042969 117.628906 202.316406 123.222656 200.515625 128.425781 C 198.917969 133.03125 195.625 136.773438 191.523438 139.316406 C 181.617188 145.464844 168.949219 142.304688 160.058594 135.898438 C 158.027344 134.433594 160.191406 131.199219 162.234375 132.671875 C 170.105469 138.339844 180.605469 141.097656 189.476562 136.015625 C 192.902344 134.054688 195.484375 130.832031 196.835938 127.148438 C 198.496094 122.632812 198.003906 117.722656 196.550781 113.222656 C 195.777344 110.832031 199.601562 110.074219 200.363281 112.433594 " fill-opacity="1" fill-rule="nonzero"/><path fill="#ffa0a2" d="M 166.789062 139.246094 C 162.042969 146.757812 153.613281 151.144531 144.84375 151.660156 C 134.21875 152.289062 124.398438 147.148438 117.5 139.28125 C 115.84375 137.390625 118.765625 134.820312 120.421875 136.710938 C 126.539062 143.6875 134.929688 148.113281 144.324219 147.816406 C 151.992188 147.574219 159.453125 143.570312 163.5625 137.066406 C 164.90625 134.945312 168.132812 137.121094 166.789062 139.246094 " fill-opacity="1" fill-rule="nonzero"/><path fill="#ffa0a2" d="M 119.941406 139.542969 C 111.851562 146.75 101.046875 150.269531 90.441406 147.15625 C 79.5 143.949219 72.1875 134.261719 68.671875 123.847656 C 68.328125 122.84375 69.238281 121.742188 70.183594 121.546875 C 71.316406 121.3125 72.144531 122.054688 72.484375 123.058594 C 75.609375 132.308594 82.148438 140.53125 91.714844 143.476562 C 100.902344 146.308594 110.429688 142.804688 117.375 136.621094 C 119.25 134.949219 121.816406 137.875 119.941406 139.542969 " fill-opacity="1" fill-rule="nonzero"/><path fill="#ffa0a2" d="M 75.164062 132.96875 C 64.03125 136.941406 51.503906 135.53125 43.160156 126.601562 C 35.699219 118.613281 34.761719 106.738281 40.402344 97.5 C 41.710938 95.355469 44.933594 97.539062 43.628906 99.679688 C 38.898438 107.429688 39.878906 116.980469 45.84375 123.765625 C 52.738281 131.601562 63.980469 132.855469 73.417969 129.488281 C 75.757812 128.652344 77.523438 132.125 75.164062 132.96875 " fill-opacity="1" fill-rule="nonzero"/><path fill="#ffa0a2" d="M 129.726562 22.378906 C 127.847656 24.867188 126.578125 27.386719 125.957031 30.460938 C 125.746094 31.503906 124.378906 31.976562 123.480469 31.664062 C 122.378906 31.285156 122.070312 30.226562 122.28125 29.1875 C 122.960938 25.824219 124.441406 22.921875 126.496094 20.199219 C 128.003906 18.207031 131.242188 20.367188 129.726562 22.378906 " fill-opacity="1" fill-rule="nonzero"/><path fill="#ffa0a2" d="M 166.433594 66.824219 C 165.28125 60.347656 161.035156 55.078125 154.527344 53.507812 C 148.585938 52.078125 142.628906 54.96875 139.492188 60.050781 C 138.433594 61.761719 135.855469 60.015625 136.910156 58.308594 C 140.832031 51.953125 147.992188 49.035156 155.246094 50.5 C 162.894531 52.039062 168.160156 58.761719 169.484375 66.191406 C 169.835938 68.167969 166.785156 68.800781 166.433594 66.824219 " fill-opacity="1" fill-rule="nonzero"/><path fill="#ffa0a2" d="M 110.371094 56.714844 C 107.425781 50.976562 101.691406 46.847656 95.039062 47.839844 C 89.066406 48.730469 85.304688 53.667969 85.632812 59.605469 C 85.746094 61.605469 82.636719 61.382812 82.527344 59.402344 C 82.128906 52.160156 87.054688 46.195312 94.109375 44.839844 C 102.199219 43.285156 109.5625 48.320312 113.152344 55.320312 C 114.074219 57.109375 111.285156 58.5 110.371094 56.714844 " fill-opacity="1" fill-rule="nonzero"/><path fill="#ffa0a2" d="M 177.269531 112.117188 C 173.902344 106.183594 172.292969 98.863281 175.855469 92.644531 C 179.375 86.5 187.035156 84.800781 193.582031 85.371094 C 195.578125 85.546875 195.382812 88.65625 193.382812 88.480469 C 187.863281 88 181.804688 89.152344 178.605469 94.113281 C 175.296875 99.234375 177.300781 105.871094 180.054688 110.722656 C 181.050781 112.472656 178.257812 113.855469 177.269531 112.117188 " fill-opacity="1" fill-rule="nonzero"/><path fill="#ffa0a2" d="M 191.273438 88.3125 C 186.230469 86.816406 180.792969 79.832031 182.992188 74.4375 C 183.746094 72.589844 186.695312 73.59375 185.933594 75.460938 C 184.375 79.285156 188.832031 84.34375 192.292969 85.371094 C 194.21875 85.941406 193.195312 88.882812 191.273438 88.3125 " fill-opacity="1" fill-rule="nonzero"/><path fill="#ffa0a2" d="M 104.796875 130.144531 C 104.132812 125.972656 100.144531 124.058594 96.453125 123.039062 C 94.519531 122.507812 95.542969 119.5625 97.472656 120.097656 C 102.210938 121.40625 107.007812 124.257812 107.847656 129.511719 C 108.164062 131.492188 105.113281 132.125 104.796875 130.144531 " fill-opacity="1" fill-rule="nonzero"/><path fill="#ffa0a2" d="M 134.410156 131.734375 C 129.5 121.671875 112.804688 119.917969 107.792969 130.875 C 106.96875 132.683594 104.015625 131.683594 104.851562 129.855469 C 110.941406 116.539062 131.007812 117.664062 137.195312 130.335938 C 138.078125 132.144531 135.292969 133.539062 134.410156 131.734375 " fill-opacity="1" fill-rule="nonzero"/><path fill="#ffa0a2" d="M 55.179688 80.675781 C 59.867188 84.757812 60.191406 90.414062 57.480469 95.765625 C 56.574219 97.554688 54 95.796875 54.898438 94.023438 C 56.765625 90.335938 56.71875 86.117188 53.4375 83.257812 C 51.941406 81.960938 53.664062 79.355469 55.179688 80.675781 " fill-opacity="1" fill-rule="nonzero"/><path fill="#ffa0a2" d="M 64.289062 63.273438 C 69.835938 66.78125 73.429688 73.332031 70.125 79.621094 C 68.777344 82.191406 66.175781 83.871094 63.433594 84.585938 C 59.6875 85.566406 55.765625 84.386719 52.421875 82.707031 C 50.632812 81.804688 52.390625 79.230469 54.164062 80.125 C 58.53125 82.320312 64.539062 82.84375 67.414062 78.109375 C 70.253906 73.425781 66.441406 68.320312 62.546875 65.859375 C 60.847656 64.785156 62.589844 62.203125 64.289062 63.273438 " fill-opacity="1" fill-rule="nonzero"/><path fill="#ffe3e4" d="M 168.625 32.164062 C 164.894531 25.765625 157.785156 21.8125 150.410156 21.820312 C 148.703125 21.820312 148.882812 19.175781 150.582031 19.175781 C 158.910156 19.167969 166.808594 23.804688 170.992188 30.976562 C 171.855469 32.457031 169.480469 33.628906 168.625 32.164062 " fill-opacity="1" fill-rule="nonzero"/><path fill="#ffe3e4" d="M 161.515625 65.285156 C 160.292969 63.148438 158.949219 61.023438 156.941406 59.539062 C 154.691406 57.878906 151.832031 57.539062 149.121094 57.484375 C 147.414062 57.449219 147.589844 54.808594 149.292969 54.84375 C 152.414062 54.90625 155.488281 55.433594 158.148438 57.152344 C 160.703125 58.804688 162.40625 61.511719 163.882812 64.101562 C 164.730469 65.589844 162.355469 66.765625 161.515625 65.285156 " fill-opacity="1" fill-rule="nonzero"/><path fill="#ffe3e4" d="M 198.941406 58.160156 C 195.769531 50.445312 188.703125 45.519531 180.820312 43.425781 C 179.171875 42.988281 180.042969 40.488281 181.683594 40.925781 C 190.167969 43.175781 197.898438 48.683594 201.304688 56.976562 C 201.953125 58.550781 199.585938 59.742188 198.941406 58.160156 " fill-opacity="1" fill-rule="nonzero"/><path fill="#ffe3e4" d="M 119.117188 21.628906 C 115.945312 19.035156 112.234375 16.816406 107.984375 17.203125 C 106.300781 17.355469 105.75 14.761719 107.445312 14.609375 C 112.464844 14.152344 116.792969 16.324219 120.59375 19.433594 C 121.90625 20.503906 120.441406 22.710938 119.117188 21.628906 " fill-opacity="1" fill-rule="nonzero"/><path fill="#ffe3e4" d="M 105.320312 56.890625 C 102.785156 53.386719 99.394531 51.425781 94.972656 52.230469 C 93.292969 52.539062 92.757812 49.941406 94.4375 49.636719 C 99.730469 48.671875 104.214844 50.863281 107.308594 55.140625 C 108.300781 56.511719 106.320312 58.273438 105.320312 56.890625 " fill-opacity="1" fill-rule="nonzero"/><path fill="#ffe3e4" d="M 190.054688 92.484375 C 187.566406 92.695312 185.101562 93.214844 183.269531 95.027344 C 181.710938 96.566406 181.292969 99 181.109375 101.078125 C 180.957031 102.777344 178.316406 102.609375 178.46875 100.90625 C 178.703125 98.265625 179.320312 95.585938 181.085938 93.523438 C 183.191406 91.054688 186.394531 90.152344 189.519531 89.890625 C 191.199219 89.75 191.753906 92.34375 190.054688 92.484375 " fill-opacity="1" fill-rule="nonzero"/><path fill="#2e3030" d="M 75.042969 165.703125 C 81.988281 165.703125 91.140625 154.894531 100.011719 144.417969 C 100.386719 143.972656 100.332031 143.3125 99.890625 142.9375 C 99.449219 142.5625 98.785156 142.617188 98.410156 143.058594 C 89.746094 153.296875 79.921875 164.894531 74.09375 163.496094 C 71.882812 162.964844 70.214844 160.382812 69.136719 155.816406 C 69.003906 155.25 68.4375 154.902344 67.875 155.035156 C 67.3125 155.167969 66.960938 155.734375 67.09375 156.296875 C 68.386719 161.773438 70.515625 164.796875 73.601562 165.539062 C 74.070312 165.648438 74.550781 165.703125 75.042969 165.703125 " fill-opacity="1" fill-rule="nonzero"/><path fill="#2e3030" d="M 205.359375 101.015625 C 205.453125 101.015625 205.546875 101.003906 205.644531 100.976562 L 206.746094 100.640625 C 219.121094 96.90625 222.445312 95.902344 234.574219 88.144531 C 235.03125 87.851562 235.164062 87.242188 234.875 86.785156 C 234.578125 86.324219 233.972656 86.191406 233.515625 86.484375 C 221.617188 94.09375 218.347656 95.082031 206.179688 98.757812 L 205.074219 99.089844 C 204.554688 99.246094 204.261719 99.796875 204.417969 100.316406 C 204.546875 100.742188 204.9375 101.015625 205.359375 101.015625 " fill-opacity="1" fill-rule="nonzero"/><path fill="#2e3030" d="M 234.484375 87.867188 C 234.703125 87.867188 234.925781 87.792969 235.105469 87.640625 L 240.527344 83.210938 C 240.945312 82.867188 241.007812 82.246094 240.667969 81.824219 C 240.320312 81.40625 239.703125 81.34375 239.28125 81.6875 L 233.859375 86.117188 C 233.441406 86.464844 233.378906 87.082031 233.722656 87.503906 C 233.917969 87.742188 234.199219 87.867188 234.484375 87.867188 " fill-opacity="1" fill-rule="nonzero"/><g clip-path="url(#ae1cf9f6fa)"><path fill="#2e3030" d="M 241.207031 88.957031 C 241.691406 88.957031 242.117188 88.59375 242.179688 88.097656 C 242.25 87.558594 241.867188 87.066406 241.328125 86.996094 L 235.234375 86.222656 L 235.46875 80.773438 C 235.492188 80.230469 235.074219 79.769531 234.53125 79.746094 C 233.996094 79.722656 233.527344 80.144531 233.503906 80.6875 L 233.191406 87.945312 L 241.078125 88.949219 C 241.121094 88.957031 241.164062 88.957031 241.207031 88.957031 " fill-opacity="1" fill-rule="nonzero"/></g><path fill="#2e3030" d="M 30.722656 95.410156 C 33.035156 95.410156 35.621094 95.34375 38.769531 95.269531 L 39.910156 95.242188 C 40.453125 95.226562 40.882812 94.777344 40.867188 94.234375 C 40.855469 93.6875 40.394531 93.246094 39.859375 93.273438 L 38.71875 93.300781 C 26.007812 93.613281 22.589844 93.695312 8.910156 90.179688 C 8.386719 90.046875 7.847656 90.363281 7.710938 90.886719 C 7.578125 91.414062 7.894531 91.949219 8.421875 92.085938 C 18.972656 94.796875 23.53125 95.410156 30.722656 95.410156 " fill-opacity="1" fill-rule="nonzero"/><g clip-path="url(#03d0bcde76)"><path fill="#2e3030" d="M 8.113281 91.84375 C 8.507812 91.84375 8.878906 91.605469 9.03125 91.214844 C 9.226562 90.707031 8.972656 90.136719 8.464844 89.941406 L 1.933594 87.425781 C 1.425781 87.230469 0.859375 87.480469 0.664062 87.988281 C 0.46875 88.496094 0.71875 89.066406 1.226562 89.261719 L 7.757812 91.78125 C 7.875 91.824219 7.996094 91.84375 8.113281 91.84375 " fill-opacity="1" fill-rule="nonzero"/></g><path fill="#2e3030" d="M 2.070312 94.980469 C 2.210938 94.980469 2.355469 94.949219 2.492188 94.882812 L 9.671875 91.464844 L 7.109375 84.667969 C 6.917969 84.160156 6.351562 83.902344 5.84375 84.09375 C 5.332031 84.285156 5.078125 84.851562 5.269531 85.363281 L 7.191406 90.46875 L 1.644531 93.105469 C 1.15625 93.339844 0.949219 93.929688 1.183594 94.417969 C 1.347656 94.773438 1.703125 94.980469 2.070312 94.980469 " fill-opacity="1" fill-rule="nonzero"/><path fill="#f2f4f4" d="M 131.695312 88.308594 C 131.160156 93.589844 135.007812 98.304688 140.289062 98.84375 C 145.566406 99.378906 150.28125 95.53125 150.816406 90.25 C 151.351562 84.964844 147.507812 80.246094 142.230469 79.714844 C 136.945312 79.179688 132.230469 83.027344 131.695312 88.308594 " fill-opacity="1" fill-rule="nonzero"/><path fill="#181919" d="M 133.652344 89.957031 C 133.246094 93.980469 136.175781 97.570312 140.195312 97.980469 C 144.214844 98.390625 147.804688 95.460938 148.214844 91.4375 C 148.621094 87.414062 145.691406 83.820312 141.671875 83.414062 C 137.652344 83.003906 134.0625 85.933594 133.652344 89.957031 " fill-opacity="1" fill-rule="nonzero"/><path fill="#f2f4f4" d="M 143.445312 87.546875 C 143.320312 88.800781 144.226562 89.910156 145.476562 90.042969 C 146.726562 90.167969 147.839844 89.257812 147.964844 88.007812 C 148.09375 86.757812 147.183594 85.640625 145.941406 85.515625 C 144.6875 85.386719 143.574219 86.296875 143.445312 87.546875 " fill-opacity="1" fill-rule="nonzero"/><path fill="#f2f4f4" d="M 92.40625 85.597656 C 91.875 90.878906 95.71875 95.597656 100.996094 96.136719 C 106.277344 96.667969 110.992188 92.824219 111.527344 87.539062 C 112.0625 82.257812 108.21875 77.539062 102.933594 77.003906 C 97.65625 76.464844 92.945312 80.316406 92.40625 85.597656 " fill-opacity="1" fill-rule="nonzero"/><path fill="#181919" d="M 94.363281 87.25 C 93.953125 91.269531 96.886719 94.863281 100.90625 95.273438 C 104.925781 95.679688 108.519531 92.75 108.925781 88.726562 C 109.332031 84.703125 106.40625 81.113281 102.382812 80.707031 C 98.363281 80.300781 94.769531 83.226562 94.363281 87.25 " fill-opacity="1" fill-rule="nonzero"/><path fill="#f2f4f4" d="M 104.152344 84.839844 C 104.027344 86.089844 104.9375 87.207031 106.1875 87.332031 C 107.4375 87.457031 108.550781 86.546875 108.675781 85.296875 C 108.804688 84.050781 107.894531 82.933594 106.648438 82.804688 C 105.398438 82.679688 104.28125 83.589844 104.152344 84.839844 " fill-opacity="1" fill-rule="nonzero"/><path fill="#fc7a8c" d="M 147.597656 104.976562 C 147.6875 107.78125 151.984375 110.007812 157.199219 109.960938 C 162.410156 109.914062 166.5625 107.605469 166.472656 104.808594 C 166.386719 102.011719 162.085938 99.78125 156.875 99.828125 C 151.664062 99.875 147.511719 102.179688 147.597656 104.976562 " fill-opacity="1" fill-rule="nonzero"/><path fill="#fc7a8c" d="M 75.054688 95.519531 C 74.519531 98.460938 77.832031 101.699219 82.449219 102.75 C 87.066406 103.804688 91.242188 102.277344 91.777344 99.335938 C 92.3125 96.402344 89 93.164062 84.382812 92.109375 C 79.765625 91.054688 75.589844 92.582031 75.054688 95.519531 " fill-opacity="1" fill-rule="nonzero"/><path fill="#2e3030" d="M 121.117188 115.28125 C 125.5 115.28125 129.945312 113.75 134.113281 110.777344 C 134.515625 110.492188 134.609375 109.9375 134.324219 109.539062 C 134.039062 109.136719 133.484375 109.042969 133.082031 109.328125 C 122.609375 116.792969 113.074219 113.070312 108.09375 107.609375 C 107.761719 107.246094 107.199219 107.222656 106.835938 107.550781 C 106.472656 107.882812 106.445312 108.449219 106.777344 108.808594 C 109.933594 112.265625 114.132812 114.507812 118.609375 115.113281 C 119.441406 115.226562 120.277344 115.28125 121.117188 115.28125 " fill-opacity="1" fill-rule="nonzero"/><path fill="#f44f2f" d="M 121.636719 113.707031 C 125.265625 113.234375 129.289062 111.992188 132.21875 109.882812 C 132.21875 109.882812 131.605469 101.722656 125.332031 102.8125 C 117.15625 104.230469 121.136719 113.769531 121.636719 113.707031 " fill-opacity="1" fill-rule="nonzero"/><path fill="#d6270f" d="M 127.117188 112.261719 C 127.371094 112.261719 127.582031 112.0625 127.59375 111.8125 C 127.695312 109.726562 127.277344 107.9375 126.089844 105.429688 C 125.980469 105.191406 125.695312 105.09375 125.460938 105.203125 C 125.222656 105.316406 125.121094 105.597656 125.234375 105.835938 C 126.359375 108.21875 126.742188 109.824219 126.644531 111.761719 C 126.632812 112.023438 126.835938 112.25 127.09375 112.261719 C 127.105469 112.261719 127.113281 112.261719 127.117188 112.261719 " fill-opacity="1" fill-rule="nonzero"/></svg>